<?xml version="1.0" encoding="utf-8" standalone="no"?>
<!DOCTYPE svg PUBLIC "-//W3C//DTD SVG 1.1//EN"
  "http://www.w3.org/Graphics/SVG/1.1/DTD/svg11.dtd">
<svg xmlns:xlink="http://www.w3.org/1999/xlink" width="855.09pt" height="496.8pt" viewBox="0 0 855.09 496.8" xmlns="http://www.w3.org/2000/svg" version="1.1">
 <metadata>
  <rdf:RDF xmlns:dc="http://purl.org/dc/elements/1.1/" xmlns:cc="http://creativecommons.org/ns#" xmlns:rdf="http://www.w3.org/1999/02/22-rdf-syntax-ns#">
   <cc:Work>
    <dc:type rdf:resource="http://purl.org/dc/dcmitype/StillImage"/>
    <dc:date>2026-09-04T17:44:45.942510</dc:date>
    <dc:format>image/svg+xml</dc:format>
    <dc:creator>
     <cc:Agent>
      <dc:title>Matplotlib v3.10.8, https://matplotlib.org/</dc:title>
     </cc:Agent>
    </dc:creator>
   </cc:Work>
  </rdf:RDF>
 </metadata>
 <defs>
  <style type="text/css">*{stroke-linejoin: round; stroke-linecap: butt}</style>
 </defs>
 <g id="figure_1">
  <g id="patch_1">
   <path d="M 0 496.8 
L 855.09 496.8 
L 855.09 0 
L 0 0 
L 0 496.8 
z
" style="fill: none"/>
  </g>
  <g id="axes_1">
   <g id="patch_2">
    <path d="M 77.2575 460.656 
L 777.8325 460.656 
Q 783.4371 460.656 783.4371 455.142857 
L 783.4371 365.554286 
Q 783.4371 360.041143 777.8325 360.041143 
L 77.2575 360.041143 
Q 71.6529 360.041143 71.6529 365.554286 
L 71.6529 455.142857 
Q 71.6529 460.656 77.2575 460.656 
z
" clip-path="url(#p15da6f5ce7)" style="fill: #e63946; opacity: 0.9; stroke: #ffffff; stroke-width: 2; stroke-linejoin: miter"/>
   </g>
   <g id="patch_3">
    <path d="M 147.315 357.284571 
L 707.775 357.284571 
Q 713.3796 357.284571 713.3796 351.771429 
L 713.3796 262.182857 
Q 713.3796 256.669714 707.775 256.669714 
L 147.315 256.669714 
Q 141.7104 256.669714 141.7104 262.182857 
L 141.7104 351.771429 
Q 141.7104 357.284571 147.315 357.284571 
z
" clip-path="url(#p15da6f5ce7)" style="fill: #ff9f1c; opacity: 0.9; stroke: #ffffff; stroke-width: 2; stroke-linejoin: miter"/>
   </g>
   <g id="patch_4">
    <path d="M 217.3725 253.913143 
L 637.7175 253.913143 
Q 643.3221 253.913143 643.3221 248.4 
L 643.3221 158.811429 
Q 643.3221 153.298286 637.7175 153.298286 
L 217.3725 153.298286 
Q 211.7679 153.298286 211.7679 158.811429 
L 211.7679 248.4 
Q 211.7679 253.913143 217.3725 253.913143 
z
" clip-path="url(#p15da6f5ce7)" style="fill: #4361ee; opacity: 0.9; stroke: #ffffff; stroke-width: 2; stroke-linejoin: miter"/>
   </g>
   <g id="patch_5">
    <path d="M 182.34375 138.137143 
L 672.74625 138.137143 
Q 679.752 138.137143 679.752 131.245714 
L 679.752 76.114286 
Q 679.752 69.222857 672.74625 69.222857 
L 182.34375 69.222857 
Q 175.338 69.222857 175.338 76.114286 
L 175.338 131.245714 
Q 175.338 138.137143 182.34375 138.137143 
z
" clip-path="url(#p15da6f5ce7)" style="fill: #1a1a2e; stroke: #ffffff; stroke-width: 2; stroke-linejoin: miter"/>
   </g>
   <g id="text_1">
    <!-- Naval's Leverage Pyramid -->
    <g style="fill: #1a1a2e" transform="translate(310.27625 27.874286) scale(0.16 -0.16)">
     <defs>
      <path id="DejaVuSans-Bold-4e" d="M 588 4666 
L 1931 4666 
L 3628 1466 
L 3628 4666 
L 4769 4666 
L 4769 0 
L 3425 0 
L 1728 3200 
L 1728 0 
L 588 0 
L 588 4666 
z
" transform="scale(0.015625)"/>
      <path id="DejaVuSans-Bold-61" d="M 2106 1575 
Q 1756 1575 1579 1456 
Q 1403 1338 1403 1106 
Q 1403 894 1545 773 
Q 1688 653 1941 653 
Q 2256 653 2472 879 
Q 2688 1106 2688 1447 
L 2688 1575 
L 2106 1575 
z
M 3816 1997 
L 3816 0 
L 2688 0 
L 2688 519 
Q 2463 200 2181 54 
Q 1900 -91 1497 -91 
Q 953 -91 614 226 
Q 275 544 275 1050 
Q 275 1666 698 1953 
Q 1122 2241 2028 2241 
L 2688 2241 
L 2688 2328 
Q 2688 2594 2478 2717 
Q 2269 2841 1825 2841 
Q 1466 2841 1156 2769 
Q 847 2697 581 2553 
L 581 3406 
Q 941 3494 1303 3539 
Q 1666 3584 2028 3584 
Q 2975 3584 3395 3211 
Q 3816 2838 3816 1997 
z
" transform="scale(0.015625)"/>
      <path id="DejaVuSans-Bold-76" d="M 97 3500 
L 1216 3500 
L 2088 1081 
L 2956 3500 
L 4078 3500 
L 2700 0 
L 1472 0 
L 97 3500 
z
" transform="scale(0.015625)"/>
      <path id="DejaVuSans-Bold-6c" d="M 538 4863 
L 1656 4863 
L 1656 0 
L 538 0 
L 538 4863 
z
" transform="scale(0.015625)"/>
      <path id="DejaVuSans-Bold-27" d="M 1350 4666 
L 1350 2931 
L 609 2931 
L 609 4666 
L 1350 4666 
z
" transform="scale(0.015625)"/>
      <path id="DejaVuSans-Bold-73" d="M 3272 3391 
L 3272 2541 
Q 2913 2691 2578 2766 
Q 2244 2841 1947 2841 
Q 1628 2841 1473 2761 
Q 1319 2681 1319 2516 
Q 1319 2381 1436 2309 
Q 1553 2238 1856 2203 
L 2053 2175 
Q 2913 2066 3209 1816 
Q 3506 1566 3506 1031 
Q 3506 472 3093 190 
Q 2681 -91 1863 -91 
Q 1516 -91 1145 -36 
Q 775 19 384 128 
L 384 978 
Q 719 816 1070 734 
Q 1422 653 1784 653 
Q 2113 653 2278 743 
Q 2444 834 2444 1013 
Q 2444 1163 2330 1236 
Q 2216 1309 1875 1350 
L 1678 1375 
Q 931 1469 631 1722 
Q 331 1975 331 2491 
Q 331 3047 712 3315 
Q 1094 3584 1881 3584 
Q 2191 3584 2531 3537 
Q 2872 3491 3272 3391 
z
" transform="scale(0.015625)"/>
      <path id="DejaVuSans-Bold-20" transform="scale(0.015625)"/>
      <path id="DejaVuSans-Bold-4c" d="M 588 4666 
L 1791 4666 
L 1791 909 
L 3903 909 
L 3903 0 
L 588 0 
L 588 4666 
z
" transform="scale(0.015625)"/>
      <path id="DejaVuSans-Bold-65" d="M 4031 1759 
L 4031 1441 
L 1416 1441 
Q 1456 1047 1700 850 
Q 1944 653 2381 653 
Q 2734 653 3104 758 
Q 3475 863 3866 1075 
L 3866 213 
Q 3469 63 3072 -14 
Q 2675 -91 2278 -91 
Q 1328 -91 801 392 
Q 275 875 275 1747 
Q 275 2603 792 3093 
Q 1309 3584 2216 3584 
Q 3041 3584 3536 3087 
Q 4031 2591 4031 1759 
z
M 2881 2131 
Q 2881 2450 2695 2645 
Q 2509 2841 2209 2841 
Q 1884 2841 1681 2658 
Q 1478 2475 1428 2131 
L 2881 2131 
z
" transform="scale(0.015625)"/>
      <path id="DejaVuSans-Bold-72" d="M 3138 2547 
Q 2991 2616 2845 2648 
Q 2700 2681 2553 2681 
Q 2122 2681 1889 2404 
Q 1656 2128 1656 1613 
L 1656 0 
L 538 0 
L 538 3500 
L 1656 3500 
L 1656 2925 
Q 1872 3269 2151 3426 
Q 2431 3584 2822 3584 
Q 2878 3584 2943 3579 
Q 3009 3575 3134 3559 
L 3138 2547 
z
" transform="scale(0.015625)"/>
      <path id="DejaVuSans-Bold-67" d="M 2919 594 
Q 2688 288 2409 144 
Q 2131 0 1766 0 
Q 1125 0 706 504 
Q 288 1009 288 1791 
Q 288 2575 706 3076 
Q 1125 3578 1766 3578 
Q 2131 3578 2409 3434 
Q 2688 3291 2919 2981 
L 2919 3500 
L 4044 3500 
L 4044 353 
Q 4044 -491 3511 -936 
Q 2978 -1381 1966 -1381 
Q 1638 -1381 1331 -1331 
Q 1025 -1281 716 -1178 
L 716 -306 
Q 1009 -475 1290 -558 
Q 1572 -641 1856 -641 
Q 2406 -641 2662 -400 
Q 2919 -159 2919 353 
L 2919 594 
z
M 2181 2772 
Q 1834 2772 1640 2515 
Q 1447 2259 1447 1791 
Q 1447 1309 1634 1061 
Q 1822 813 2181 813 
Q 2531 813 2725 1069 
Q 2919 1325 2919 1791 
Q 2919 2259 2725 2515 
Q 2531 2772 2181 2772 
z
" transform="scale(0.015625)"/>
      <path id="DejaVuSans-Bold-50" d="M 588 4666 
L 2584 4666 
Q 3475 4666 3951 4270 
Q 4428 3875 4428 3144 
Q 4428 2409 3951 2014 
Q 3475 1619 2584 1619 
L 1791 1619 
L 1791 0 
L 588 0 
L 588 4666 
z
M 1791 3794 
L 1791 2491 
L 2456 2491 
Q 2806 2491 2997 2661 
Q 3188 2831 3188 3144 
Q 3188 3456 2997 3625 
Q 2806 3794 2456 3794 
L 1791 3794 
z
" transform="scale(0.015625)"/>
      <path id="DejaVuSans-Bold-79" d="M 78 3500 
L 1197 3500 
L 2138 1125 
L 2938 3500 
L 4056 3500 
L 2584 -331 
Q 2363 -916 2067 -1148 
Q 1772 -1381 1288 -1381 
L 641 -1381 
L 641 -647 
L 991 -647 
Q 1275 -647 1404 -556 
Q 1534 -466 1606 -231 
L 1638 -134 
L 78 3500 
z
" transform="scale(0.015625)"/>
      <path id="DejaVuSans-Bold-6d" d="M 3781 2919 
Q 3994 3244 4286 3414 
Q 4578 3584 4928 3584 
Q 5531 3584 5847 3212 
Q 6163 2841 6163 2131 
L 6163 0 
L 5038 0 
L 5038 1825 
Q 5041 1866 5042 1909 
Q 5044 1953 5044 2034 
Q 5044 2406 4934 2573 
Q 4825 2741 4581 2741 
Q 4263 2741 4089 2478 
Q 3916 2216 3909 1719 
L 3909 0 
L 2784 0 
L 2784 1825 
Q 2784 2406 2684 2573 
Q 2584 2741 2328 2741 
Q 2006 2741 1831 2477 
Q 1656 2213 1656 1722 
L 1656 0 
L 531 0 
L 531 3500 
L 1656 3500 
L 1656 2988 
Q 1863 3284 2130 3434 
Q 2397 3584 2719 3584 
Q 3081 3584 3359 3409 
Q 3638 3234 3781 2919 
z
" transform="scale(0.015625)"/>
      <path id="DejaVuSans-Bold-69" d="M 538 3500 
L 1656 3500 
L 1656 0 
L 538 0 
L 538 3500 
z
M 538 4863 
L 1656 4863 
L 1656 3950 
L 538 3950 
L 538 4863 
z
" transform="scale(0.015625)"/>
      <path id="DejaVuSans-Bold-64" d="M 2919 2988 
L 2919 4863 
L 4044 4863 
L 4044 0 
L 2919 0 
L 2919 506 
Q 2688 197 2409 53 
Q 2131 -91 1766 -91 
Q 1119 -91 703 423 
Q 288 938 288 1747 
Q 288 2556 703 3070 
Q 1119 3584 1766 3584 
Q 2128 3584 2408 3439 
Q 2688 3294 2919 2988 
z
M 2181 722 
Q 2541 722 2730 984 
Q 2919 1247 2919 1747 
Q 2919 2247 2730 2509 
Q 2541 2772 2181 2772 
Q 1825 2772 1636 2509 
Q 1447 2247 1447 1747 
Q 1447 1247 1636 984 
Q 1825 722 2181 722 
z
" transform="scale(0.015625)"/>
     </defs>
     <use xlink:href="#DejaVuSans-Bold-4e"/>
     <use xlink:href="#DejaVuSans-Bold-61" transform="translate(83.691406 0)"/>
     <use xlink:href="#DejaVuSans-Bold-76" transform="translate(151.171875 0)"/>
     <use xlink:href="#DejaVuSans-Bold-61" transform="translate(216.357422 0)"/>
     <use xlink:href="#DejaVuSans-Bold-6c" transform="translate(283.837891 0)"/>
     <use xlink:href="#DejaVuSans-Bold-27" transform="translate(318.115234 0)"/>
     <use xlink:href="#DejaVuSans-Bold-73" transform="translate(348.730469 0)"/>
     <use xlink:href="#DejaVuSans-Bold-20" transform="translate(408.251953 0)"/>
     <use xlink:href="#DejaVuSans-Bold-4c" transform="translate(443.066406 0)"/>
     <use xlink:href="#DejaVuSans-Bold-65" transform="translate(506.787109 0)"/>
     <use xlink:href="#DejaVuSans-Bold-76" transform="translate(574.609375 0)"/>
     <use xlink:href="#DejaVuSans-Bold-65" transform="translate(639.794922 0)"/>
     <use xlink:href="#DejaVuSans-Bold-72" transform="translate(707.617188 0)"/>
     <use xlink:href="#DejaVuSans-Bold-61" transform="translate(756.933594 0)"/>
     <use xlink:href="#DejaVuSans-Bold-67" transform="translate(824.414062 0)"/>
     <use xlink:href="#DejaVuSans-Bold-65" transform="translate(895.996094 0)"/>
     <use xlink:href="#DejaVuSans-Bold-20" transform="translate(963.818359 0)"/>
     <use xlink:href="#DejaVuSans-Bold-50" transform="translate(998.632812 0)"/>
     <use xlink:href="#DejaVuSans-Bold-79" transform="translate(1073.798828 0)"/>
     <use xlink:href="#DejaVuSans-Bold-72" transform="translate(1138.984375 0)"/>
     <use xlink:href="#DejaVuSans-Bold-61" transform="translate(1188.300781 0)"/>
     <use xlink:href="#DejaVuSans-Bold-6d" transform="translate(1255.78125 0)"/>
     <use xlink:href="#DejaVuSans-Bold-69" transform="translate(1359.980469 0)"/>
     <use xlink:href="#DejaVuSans-Bold-64" transform="translate(1394.257812 0)"/>
    </g>
   </g>
   <g id="text_2">
    <!-- Higher leverage = more output per unit of input -->
    <g style="fill: #666666" transform="translate(306.92 51.994286) scale(0.1 -0.1)">
     <defs>
      <path id="DejaVuSans-Oblique-48" d="M 1081 4666 
L 1716 4666 
L 1344 2753 
L 3634 2753 
L 4006 4666 
L 4641 4666 
L 3731 0 
L 3097 0 
L 3531 2222 
L 1241 2222 
L 806 0 
L 172 0 
L 1081 4666 
z
" transform="scale(0.015625)"/>
      <path id="DejaVuSans-Oblique-69" d="M 1172 4863 
L 1747 4863 
L 1606 4134 
L 1031 4134 
L 1172 4863 
z
M 909 3500 
L 1484 3500 
L 800 0 
L 225 0 
L 909 3500 
z
" transform="scale(0.015625)"/>
      <path id="DejaVuSans-Oblique-67" d="M 3816 3500 
L 3219 434 
Q 3047 -456 2561 -893 
Q 2075 -1331 1253 -1331 
Q 950 -1331 690 -1286 
Q 431 -1241 206 -1147 
L 313 -588 
Q 525 -725 762 -790 
Q 1000 -856 1269 -856 
Q 1816 -856 2167 -557 
Q 2519 -259 2631 300 
L 2681 563 
Q 2441 288 2122 144 
Q 1803 0 1434 0 
Q 903 0 598 351 
Q 294 703 294 1319 
Q 294 1803 478 2267 
Q 663 2731 997 3091 
Q 1219 3328 1514 3456 
Q 1809 3584 2131 3584 
Q 2484 3584 2746 3420 
Q 3009 3256 3138 2956 
L 3238 3500 
L 3816 3500 
z
M 2950 2216 
Q 2950 2641 2750 2872 
Q 2550 3103 2181 3103 
Q 1953 3103 1747 3012 
Q 1541 2922 1394 2759 
Q 1156 2491 1023 2127 
Q 891 1763 891 1375 
Q 891 944 1092 712 
Q 1294 481 1672 481 
Q 2219 481 2584 976 
Q 2950 1472 2950 2216 
z
" transform="scale(0.015625)"/>
      <path id="DejaVuSans-Oblique-68" d="M 3566 2113 
L 3156 0 
L 2578 0 
L 2988 2091 
Q 3016 2238 3031 2350 
Q 3047 2463 3047 2528 
Q 3047 2791 2881 2937 
Q 2716 3084 2419 3084 
Q 1956 3084 1617 2771 
Q 1278 2459 1178 1941 
L 800 0 
L 225 0 
L 1172 4863 
L 1747 4863 
L 1375 2950 
Q 1594 3244 1934 3414 
Q 2275 3584 2650 3584 
Q 3113 3584 3367 3334 
Q 3622 3084 3622 2631 
Q 3622 2519 3608 2391 
Q 3594 2263 3566 2113 
z
" transform="scale(0.015625)"/>
      <path id="DejaVuSans-Oblique-65" d="M 3078 2063 
Q 3088 2113 3092 2166 
Q 3097 2219 3097 2272 
Q 3097 2653 2873 2875 
Q 2650 3097 2266 3097 
Q 1838 3097 1509 2826 
Q 1181 2556 1013 2059 
L 3078 2063 
z
M 3578 1613 
L 903 1613 
Q 884 1494 878 1425 
Q 872 1356 872 1306 
Q 872 872 1139 634 
Q 1406 397 1894 397 
Q 2269 397 2603 481 
Q 2938 566 3225 728 
L 3116 159 
Q 2806 34 2476 -28 
Q 2147 -91 1806 -91 
Q 1078 -91 686 257 
Q 294 606 294 1247 
Q 294 1794 489 2264 
Q 684 2734 1063 3103 
Q 1306 3334 1642 3459 
Q 1978 3584 2356 3584 
Q 2950 3584 3301 3228 
Q 3653 2872 3653 2272 
Q 3653 2128 3634 1964 
Q 3616 1800 3578 1613 
z
" transform="scale(0.015625)"/>
      <path id="DejaVuSans-Oblique-72" d="M 2853 2969 
Q 2766 3016 2653 3041 
Q 2541 3066 2413 3066 
Q 1953 3066 1609 2717 
Q 1266 2369 1153 1784 
L 800 0 
L 225 0 
L 909 3500 
L 1484 3500 
L 1375 2956 
Q 1603 3259 1920 3421 
Q 2238 3584 2597 3584 
Q 2691 3584 2781 3573 
Q 2872 3563 2963 3538 
L 2853 2969 
z
" transform="scale(0.015625)"/>
      <path id="DejaVuSans-Oblique-20" transform="scale(0.015625)"/>
      <path id="DejaVuSans-Oblique-6c" d="M 1172 4863 
L 1747 4863 
L 800 0 
L 225 0 
L 1172 4863 
z
" transform="scale(0.015625)"/>
      <path id="DejaVuSans-Oblique-76" d="M 459 3500 
L 1069 3500 
L 1581 525 
L 3256 3500 
L 3866 3500 
L 1875 0 
L 1100 0 
L 459 3500 
z
" transform="scale(0.015625)"/>
      <path id="DejaVuSans-Oblique-61" d="M 3438 1997 
L 3047 0 
L 2472 0 
L 2578 531 
Q 2325 219 2001 64 
Q 1678 -91 1281 -91 
Q 834 -91 548 182 
Q 263 456 263 884 
Q 263 1497 752 1853 
Q 1241 2209 2100 2209 
L 2900 2209 
L 2931 2363 
Q 2938 2388 2941 2417 
Q 2944 2447 2944 2509 
Q 2944 2788 2717 2942 
Q 2491 3097 2081 3097 
Q 1800 3097 1504 3025 
Q 1209 2953 897 2809 
L 997 3341 
Q 1322 3463 1633 3523 
Q 1944 3584 2234 3584 
Q 2853 3584 3176 3315 
Q 3500 3047 3500 2534 
Q 3500 2431 3484 2292 
Q 3469 2153 3438 1997 
z
M 2816 1759 
L 2241 1759 
Q 1534 1759 1195 1570 
Q 856 1381 856 984 
Q 856 709 1029 553 
Q 1203 397 1509 397 
Q 1978 397 2328 733 
Q 2678 1069 2791 1631 
L 2816 1759 
z
" transform="scale(0.015625)"/>
      <path id="DejaVuSans-Oblique-3d" d="M 678 2906 
L 4684 2906 
L 4684 2381 
L 678 2381 
L 678 2906 
z
M 678 1631 
L 4684 1631 
L 4684 1100 
L 678 1100 
L 678 1631 
z
" transform="scale(0.015625)"/>
      <path id="DejaVuSans-Oblique-6d" d="M 5747 2113 
L 5338 0 
L 4763 0 
L 5166 2094 
Q 5191 2228 5203 2325 
Q 5216 2422 5216 2491 
Q 5216 2772 5059 2928 
Q 4903 3084 4622 3084 
Q 4203 3084 3875 2770 
Q 3547 2456 3450 1953 
L 3066 0 
L 2491 0 
L 2900 2094 
Q 2925 2209 2937 2307 
Q 2950 2406 2950 2484 
Q 2950 2769 2794 2926 
Q 2638 3084 2363 3084 
Q 1938 3084 1609 2770 
Q 1281 2456 1184 1953 
L 800 0 
L 225 0 
L 909 3500 
L 1484 3500 
L 1375 2956 
Q 1609 3263 1923 3423 
Q 2238 3584 2597 3584 
Q 2978 3584 3223 3384 
Q 3469 3184 3519 2828 
Q 3781 3197 4126 3390 
Q 4472 3584 4856 3584 
Q 5306 3584 5551 3325 
Q 5797 3066 5797 2591 
Q 5797 2488 5784 2364 
Q 5772 2241 5747 2113 
z
" transform="scale(0.015625)"/>
      <path id="DejaVuSans-Oblique-6f" d="M 1625 -91 
Q 1009 -91 651 289 
Q 294 669 294 1325 
Q 294 1706 417 2101 
Q 541 2497 738 2766 
Q 1047 3184 1428 3384 
Q 1809 3584 2291 3584 
Q 2888 3584 3255 3212 
Q 3622 2841 3622 2241 
Q 3622 1825 3500 1412 
Q 3378 1000 3181 728 
Q 2875 309 2494 109 
Q 2113 -91 1625 -91 
z
M 891 1344 
Q 891 869 1089 633 
Q 1288 397 1691 397 
Q 2269 397 2648 901 
Q 3028 1406 3028 2181 
Q 3028 2634 2825 2865 
Q 2622 3097 2228 3097 
Q 1903 3097 1650 2945 
Q 1397 2794 1197 2484 
Q 1050 2253 970 1956 
Q 891 1659 891 1344 
z
" transform="scale(0.015625)"/>
      <path id="DejaVuSans-Oblique-75" d="M 428 1388 
L 838 3500 
L 1416 3500 
L 1006 1409 
Q 975 1256 961 1147 
Q 947 1038 947 966 
Q 947 700 1109 554 
Q 1272 409 1569 409 
Q 2031 409 2368 721 
Q 2706 1034 2809 1563 
L 3194 3500 
L 3769 3500 
L 3091 0 
L 2516 0 
L 2631 550 
Q 2388 244 2052 76 
Q 1716 -91 1338 -91 
Q 878 -91 622 161 
Q 366 413 366 863 
Q 366 956 381 1097 
Q 397 1238 428 1388 
z
" transform="scale(0.015625)"/>
      <path id="DejaVuSans-Oblique-74" d="M 2706 3500 
L 2619 3053 
L 1472 3053 
L 1100 1153 
Q 1081 1047 1072 975 
Q 1063 903 1063 863 
Q 1063 663 1183 572 
Q 1303 481 1569 481 
L 2150 481 
L 2053 0 
L 1503 0 
Q 991 0 739 200 
Q 488 400 488 806 
Q 488 878 497 964 
Q 506 1050 525 1153 
L 897 3053 
L 409 3053 
L 500 3500 
L 978 3500 
L 1172 4494 
L 1747 4494 
L 1556 3500 
L 2706 3500 
z
" transform="scale(0.015625)"/>
      <path id="DejaVuSans-Oblique-70" d="M 3175 2156 
Q 3175 2616 2975 2859 
Q 2775 3103 2400 3103 
Q 2144 3103 1911 2972 
Q 1678 2841 1497 2591 
Q 1319 2344 1212 1994 
Q 1106 1644 1106 1300 
Q 1106 863 1306 627 
Q 1506 391 1875 391 
Q 2147 391 2380 519 
Q 2613 647 2778 891 
Q 2956 1147 3065 1494 
Q 3175 1841 3175 2156 
z
M 1394 2969 
Q 1625 3272 1939 3428 
Q 2253 3584 2638 3584 
Q 3175 3584 3472 3232 
Q 3769 2881 3769 2247 
Q 3769 1728 3584 1258 
Q 3400 788 3053 416 
Q 2822 169 2531 39 
Q 2241 -91 1919 -91 
Q 1547 -91 1294 64 
Q 1041 219 916 525 
L 556 -1331 
L -19 -1331 
L 922 3500 
L 1497 3500 
L 1394 2969 
z
" transform="scale(0.015625)"/>
      <path id="DejaVuSans-Oblique-6e" d="M 3566 2113 
L 3156 0 
L 2578 0 
L 2988 2091 
Q 3016 2238 3031 2350 
Q 3047 2463 3047 2528 
Q 3047 2791 2881 2937 
Q 2716 3084 2419 3084 
Q 1956 3084 1622 2776 
Q 1288 2469 1184 1941 
L 800 0 
L 225 0 
L 903 3500 
L 1478 3500 
L 1363 2950 
Q 1603 3253 1940 3418 
Q 2278 3584 2650 3584 
Q 3113 3584 3367 3334 
Q 3622 3084 3622 2631 
Q 3622 2519 3608 2391 
Q 3594 2263 3566 2113 
z
" transform="scale(0.015625)"/>
      <path id="DejaVuSans-Oblique-66" d="M 3059 4863 
L 2969 4384 
L 2419 4384 
Q 2106 4384 1964 4261 
Q 1822 4138 1753 3809 
L 1691 3500 
L 2638 3500 
L 2553 3053 
L 1606 3053 
L 1013 0 
L 434 0 
L 1031 3053 
L 481 3053 
L 563 3500 
L 1113 3500 
L 1159 3744 
Q 1278 4363 1576 4613 
Q 1875 4863 2516 4863 
L 3059 4863 
z
" transform="scale(0.015625)"/>
     </defs>
     <use xlink:href="#DejaVuSans-Oblique-48"/>
     <use xlink:href="#DejaVuSans-Oblique-69" transform="translate(75.195312 0)"/>
     <use xlink:href="#DejaVuSans-Oblique-67" transform="translate(102.978516 0)"/>
     <use xlink:href="#DejaVuSans-Oblique-68" transform="translate(166.455078 0)"/>
     <use xlink:href="#DejaVuSans-Oblique-65" transform="translate(229.833984 0)"/>
     <use xlink:href="#DejaVuSans-Oblique-72" transform="translate(291.357422 0)"/>
     <use xlink:href="#DejaVuSans-Oblique-20" transform="translate(332.470703 0)"/>
     <use xlink:href="#DejaVuSans-Oblique-6c" transform="translate(364.257812 0)"/>
     <use xlink:href="#DejaVuSans-Oblique-65" transform="translate(392.041016 0)"/>
     <use xlink:href="#DejaVuSans-Oblique-76" transform="translate(453.564453 0)"/>
     <use xlink:href="#DejaVuSans-Oblique-65" transform="translate(512.744141 0)"/>
     <use xlink:href="#DejaVuSans-Oblique-72" transform="translate(574.267578 0)"/>
     <use xlink:href="#DejaVuSans-Oblique-61" transform="translate(615.380859 0)"/>
     <use xlink:href="#DejaVuSans-Oblique-67" transform="translate(676.660156 0)"/>
     <use xlink:href="#DejaVuSans-Oblique-65" transform="translate(740.136719 0)"/>
     <use xlink:href="#DejaVuSans-Oblique-20" transform="translate(801.660156 0)"/>
     <use xlink:href="#DejaVuSans-Oblique-3d" transform="translate(833.447266 0)"/>
     <use xlink:href="#DejaVuSans-Oblique-20" transform="translate(917.236328 0)"/>
     <use xlink:href="#DejaVuSans-Oblique-6d" transform="translate(949.023438 0)"/>
     <use xlink:href="#DejaVuSans-Oblique-6f" transform="translate(1046.435547 0)"/>
     <use xlink:href="#DejaVuSans-Oblique-72" transform="translate(1107.617188 0)"/>
     <use xlink:href="#DejaVuSans-Oblique-65" transform="translate(1148.730469 0)"/>
     <use xlink:href="#DejaVuSans-Oblique-20" transform="translate(1210.253906 0)"/>
     <use xlink:href="#DejaVuSans-Oblique-6f" transform="translate(1242.041016 0)"/>
     <use xlink:href="#DejaVuSans-Oblique-75" transform="translate(1303.222656 0)"/>
     <use xlink:href="#DejaVuSans-Oblique-74" transform="translate(1366.601562 0)"/>
     <use xlink:href="#DejaVuSans-Oblique-70" transform="translate(1405.810547 0)"/>
     <use xlink:href="#DejaVuSans-Oblique-75" transform="translate(1469.287109 0)"/>
     <use xlink:href="#DejaVuSans-Oblique-74" transform="translate(1532.666016 0)"/>
     <use xlink:href="#DejaVuSans-Oblique-20" transform="translate(1571.875 0)"/>
     <use xlink:href="#DejaVuSans-Oblique-70" transform="translate(1603.662109 0)"/>
     <use xlink:href="#DejaVuSans-Oblique-65" transform="translate(1667.138672 0)"/>
     <use xlink:href="#DejaVuSans-Oblique-72" transform="translate(1728.662109 0)"/>
     <use xlink:href="#DejaVuSans-Oblique-20" transform="translate(1769.775391 0)"/>
     <use xlink:href="#DejaVuSans-Oblique-75" transform="translate(1801.5625 0)"/>
     <use xlink:href="#DejaVuSans-Oblique-6e" transform="translate(1864.941406 0)"/>
     <use xlink:href="#DejaVuSans-Oblique-69" transform="translate(1928.320312 0)"/>
     <use xlink:href="#DejaVuSans-Oblique-74" transform="translate(1956.103516 0)"/>
     <use xlink:href="#DejaVuSans-Oblique-20" transform="translate(1995.3125 0)"/>
     <use xlink:href="#DejaVuSans-Oblique-6f" transform="translate(2027.099609 0)"/>
     <use xlink:href="#DejaVuSans-Oblique-66" transform="translate(2088.28125 0)"/>
     <use xlink:href="#DejaVuSans-Oblique-20" transform="translate(2123.486328 0)"/>
     <use xlink:href="#DejaVuSans-Oblique-69" transform="translate(2155.273438 0)"/>
     <use xlink:href="#DejaVuSans-Oblique-6e" transform="translate(2183.056641 0)"/>
     <use xlink:href="#DejaVuSans-Oblique-70" transform="translate(2246.435547 0)"/>
     <use xlink:href="#DejaVuSans-Oblique-75" transform="translate(2309.912109 0)"/>
     <use xlink:href="#DejaVuSans-Oblique-74" transform="translate(2373.291016 0)"/>
    </g>
   </g>
   <g id="text_3">
    <!-- LABOR -->
    <g style="fill: #ffffff" transform="translate(400.990938 393.537411) scale(0.14 -0.14)">
     <defs>
      <path id="DejaVuSans-Bold-41" d="M 3419 850 
L 1538 850 
L 1241 0 
L 31 0 
L 1759 4666 
L 3194 4666 
L 4922 0 
L 3713 0 
L 3419 850 
z
M 1838 1716 
L 3116 1716 
L 2478 3572 
L 1838 1716 
z
" transform="scale(0.015625)"/>
      <path id="DejaVuSans-Bold-42" d="M 2456 2859 
Q 2741 2859 2887 2984 
Q 3034 3109 3034 3353 
Q 3034 3594 2887 3720 
Q 2741 3847 2456 3847 
L 1791 3847 
L 1791 2859 
L 2456 2859 
z
M 2497 819 
Q 2859 819 3042 972 
Q 3225 1125 3225 1434 
Q 3225 1738 3044 1889 
Q 2863 2041 2497 2041 
L 1791 2041 
L 1791 819 
L 2497 819 
z
M 3616 2497 
Q 4003 2384 4215 2081 
Q 4428 1778 4428 1338 
Q 4428 663 3972 331 
Q 3516 0 2584 0 
L 588 0 
L 588 4666 
L 2394 4666 
Q 3366 4666 3802 4372 
Q 4238 4078 4238 3431 
Q 4238 3091 4078 2852 
Q 3919 2613 3616 2497 
z
" transform="scale(0.015625)"/>
      <path id="DejaVuSans-Bold-4f" d="M 2719 3878 
Q 2169 3878 1866 3472 
Q 1563 3066 1563 2328 
Q 1563 1594 1866 1187 
Q 2169 781 2719 781 
Q 3272 781 3575 1187 
Q 3878 1594 3878 2328 
Q 3878 3066 3575 3472 
Q 3272 3878 2719 3878 
z
M 2719 4750 
Q 3844 4750 4481 4106 
Q 5119 3463 5119 2328 
Q 5119 1197 4481 553 
Q 3844 -91 2719 -91 
Q 1597 -91 958 553 
Q 319 1197 319 2328 
Q 319 3463 958 4106 
Q 1597 4750 2719 4750 
z
" transform="scale(0.015625)"/>
      <path id="DejaVuSans-Bold-52" d="M 2297 2597 
Q 2675 2597 2839 2737 
Q 3003 2878 3003 3200 
Q 3003 3519 2839 3656 
Q 2675 3794 2297 3794 
L 1791 3794 
L 1791 2597 
L 2297 2597 
z
M 1791 1766 
L 1791 0 
L 588 0 
L 588 4666 
L 2425 4666 
Q 3347 4666 3776 4356 
Q 4206 4047 4206 3378 
Q 4206 2916 3982 2619 
Q 3759 2322 3309 2181 
Q 3556 2125 3751 1926 
Q 3947 1728 4147 1325 
L 4800 0 
L 3519 0 
L 2950 1159 
Q 2778 1509 2601 1637 
Q 2425 1766 2131 1766 
L 1791 1766 
z
" transform="scale(0.015625)"/>
     </defs>
     <use xlink:href="#DejaVuSans-Bold-4c"/>
     <use xlink:href="#DejaVuSans-Bold-41" transform="translate(63.720703 0)"/>
     <use xlink:href="#DejaVuSans-Bold-42" transform="translate(141.113281 0)"/>
     <use xlink:href="#DejaVuSans-Bold-4f" transform="translate(217.333984 0)"/>
     <use xlink:href="#DejaVuSans-Bold-52" transform="translate(302.34375 0)"/>
    </g>
   </g>
   <g id="text_4">
    <!-- Trade time for money  |  Linear income  |  Permission required -->
    <g style="fill: #ffffff; opacity: 0.9" transform="translate(295.980937 416.040145) scale(0.085 -0.085)">
     <defs>
      <path id="DejaVuSans-54" d="M -19 4666 
L 3928 4666 
L 3928 4134 
L 2272 4134 
L 2272 0 
L 1638 0 
L 1638 4134 
L -19 4134 
L -19 4666 
z
" transform="scale(0.015625)"/>
      <path id="DejaVuSans-72" d="M 2631 2963 
Q 2534 3019 2420 3045 
Q 2306 3072 2169 3072 
Q 1681 3072 1420 2755 
Q 1159 2438 1159 1844 
L 1159 0 
L 581 0 
L 581 3500 
L 1159 3500 
L 1159 2956 
Q 1341 3275 1631 3429 
Q 1922 3584 2338 3584 
Q 2397 3584 2469 3576 
Q 2541 3569 2628 3553 
L 2631 2963 
z
" transform="scale(0.015625)"/>
      <path id="DejaVuSans-61" d="M 2194 1759 
Q 1497 1759 1228 1600 
Q 959 1441 959 1056 
Q 959 750 1161 570 
Q 1363 391 1709 391 
Q 2188 391 2477 730 
Q 2766 1069 2766 1631 
L 2766 1759 
L 2194 1759 
z
M 3341 1997 
L 3341 0 
L 2766 0 
L 2766 531 
Q 2569 213 2275 61 
Q 1981 -91 1556 -91 
Q 1019 -91 701 211 
Q 384 513 384 1019 
Q 384 1609 779 1909 
Q 1175 2209 1959 2209 
L 2766 2209 
L 2766 2266 
Q 2766 2663 2505 2880 
Q 2244 3097 1772 3097 
Q 1472 3097 1187 3025 
Q 903 2953 641 2809 
L 641 3341 
Q 956 3463 1253 3523 
Q 1550 3584 1831 3584 
Q 2591 3584 2966 3190 
Q 3341 2797 3341 1997 
z
" transform="scale(0.015625)"/>
      <path id="DejaVuSans-64" d="M 2906 2969 
L 2906 4863 
L 3481 4863 
L 3481 0 
L 2906 0 
L 2906 525 
Q 2725 213 2448 61 
Q 2172 -91 1784 -91 
Q 1150 -91 751 415 
Q 353 922 353 1747 
Q 353 2572 751 3078 
Q 1150 3584 1784 3584 
Q 2172 3584 2448 3432 
Q 2725 3281 2906 2969 
z
M 947 1747 
Q 947 1113 1208 752 
Q 1469 391 1925 391 
Q 2381 391 2643 752 
Q 2906 1113 2906 1747 
Q 2906 2381 2643 2742 
Q 2381 3103 1925 3103 
Q 1469 3103 1208 2742 
Q 947 2381 947 1747 
z
" transform="scale(0.015625)"/>
      <path id="DejaVuSans-65" d="M 3597 1894 
L 3597 1613 
L 953 1613 
Q 991 1019 1311 708 
Q 1631 397 2203 397 
Q 2534 397 2845 478 
Q 3156 559 3463 722 
L 3463 178 
Q 3153 47 2828 -22 
Q 2503 -91 2169 -91 
Q 1331 -91 842 396 
Q 353 884 353 1716 
Q 353 2575 817 3079 
Q 1281 3584 2069 3584 
Q 2775 3584 3186 3129 
Q 3597 2675 3597 1894 
z
M 3022 2063 
Q 3016 2534 2758 2815 
Q 2500 3097 2075 3097 
Q 1594 3097 1305 2825 
Q 1016 2553 972 2059 
L 3022 2063 
z
" transform="scale(0.015625)"/>
      <path id="DejaVuSans-20" transform="scale(0.015625)"/>
      <path id="DejaVuSans-74" d="M 1172 4494 
L 1172 3500 
L 2356 3500 
L 2356 3053 
L 1172 3053 
L 1172 1153 
Q 1172 725 1289 603 
Q 1406 481 1766 481 
L 2356 481 
L 2356 0 
L 1766 0 
Q 1100 0 847 248 
Q 594 497 594 1153 
L 594 3053 
L 172 3053 
L 172 3500 
L 594 3500 
L 594 4494 
L 1172 4494 
z
" transform="scale(0.015625)"/>
      <path id="DejaVuSans-69" d="M 603 3500 
L 1178 3500 
L 1178 0 
L 603 0 
L 603 3500 
z
M 603 4863 
L 1178 4863 
L 1178 4134 
L 603 4134 
L 603 4863 
z
" transform="scale(0.015625)"/>
      <path id="DejaVuSans-6d" d="M 3328 2828 
Q 3544 3216 3844 3400 
Q 4144 3584 4550 3584 
Q 5097 3584 5394 3201 
Q 5691 2819 5691 2113 
L 5691 0 
L 5113 0 
L 5113 2094 
Q 5113 2597 4934 2840 
Q 4756 3084 4391 3084 
Q 3944 3084 3684 2787 
Q 3425 2491 3425 1978 
L 3425 0 
L 2847 0 
L 2847 2094 
Q 2847 2600 2669 2842 
Q 2491 3084 2119 3084 
Q 1678 3084 1418 2786 
Q 1159 2488 1159 1978 
L 1159 0 
L 581 0 
L 581 3500 
L 1159 3500 
L 1159 2956 
Q 1356 3278 1631 3431 
Q 1906 3584 2284 3584 
Q 2666 3584 2933 3390 
Q 3200 3197 3328 2828 
z
" transform="scale(0.015625)"/>
      <path id="DejaVuSans-66" d="M 2375 4863 
L 2375 4384 
L 1825 4384 
Q 1516 4384 1395 4259 
Q 1275 4134 1275 3809 
L 1275 3500 
L 2222 3500 
L 2222 3053 
L 1275 3053 
L 1275 0 
L 697 0 
L 697 3053 
L 147 3053 
L 147 3500 
L 697 3500 
L 697 3744 
Q 697 4328 969 4595 
Q 1241 4863 1831 4863 
L 2375 4863 
z
" transform="scale(0.015625)"/>
      <path id="DejaVuSans-6f" d="M 1959 3097 
Q 1497 3097 1228 2736 
Q 959 2375 959 1747 
Q 959 1119 1226 758 
Q 1494 397 1959 397 
Q 2419 397 2687 759 
Q 2956 1122 2956 1747 
Q 2956 2369 2687 2733 
Q 2419 3097 1959 3097 
z
M 1959 3584 
Q 2709 3584 3137 3096 
Q 3566 2609 3566 1747 
Q 3566 888 3137 398 
Q 2709 -91 1959 -91 
Q 1206 -91 779 398 
Q 353 888 353 1747 
Q 353 2609 779 3096 
Q 1206 3584 1959 3584 
z
" transform="scale(0.015625)"/>
      <path id="DejaVuSans-6e" d="M 3513 2113 
L 3513 0 
L 2938 0 
L 2938 2094 
Q 2938 2591 2744 2837 
Q 2550 3084 2163 3084 
Q 1697 3084 1428 2787 
Q 1159 2491 1159 1978 
L 1159 0 
L 581 0 
L 581 3500 
L 1159 3500 
L 1159 2956 
Q 1366 3272 1645 3428 
Q 1925 3584 2291 3584 
Q 2894 3584 3203 3211 
Q 3513 2838 3513 2113 
z
" transform="scale(0.015625)"/>
      <path id="DejaVuSans-79" d="M 2059 -325 
Q 1816 -950 1584 -1140 
Q 1353 -1331 966 -1331 
L 506 -1331 
L 506 -850 
L 844 -850 
Q 1081 -850 1212 -737 
Q 1344 -625 1503 -206 
L 1606 56 
L 191 3500 
L 800 3500 
L 1894 763 
L 2988 3500 
L 3597 3500 
L 2059 -325 
z
" transform="scale(0.015625)"/>
      <path id="DejaVuSans-7c" d="M 1344 4891 
L 1344 -1509 
L 813 -1509 
L 813 4891 
L 1344 4891 
z
" transform="scale(0.015625)"/>
      <path id="DejaVuSans-4c" d="M 628 4666 
L 1259 4666 
L 1259 531 
L 3531 531 
L 3531 0 
L 628 0 
L 628 4666 
z
" transform="scale(0.015625)"/>
      <path id="DejaVuSans-63" d="M 3122 3366 
L 3122 2828 
Q 2878 2963 2633 3030 
Q 2388 3097 2138 3097 
Q 1578 3097 1268 2742 
Q 959 2388 959 1747 
Q 959 1106 1268 751 
Q 1578 397 2138 397 
Q 2388 397 2633 464 
Q 2878 531 3122 666 
L 3122 134 
Q 2881 22 2623 -34 
Q 2366 -91 2075 -91 
Q 1284 -91 818 406 
Q 353 903 353 1747 
Q 353 2603 823 3093 
Q 1294 3584 2113 3584 
Q 2378 3584 2631 3529 
Q 2884 3475 3122 3366 
z
" transform="scale(0.015625)"/>
      <path id="DejaVuSans-50" d="M 1259 4147 
L 1259 2394 
L 2053 2394 
Q 2494 2394 2734 2622 
Q 2975 2850 2975 3272 
Q 2975 3691 2734 3919 
Q 2494 4147 2053 4147 
L 1259 4147 
z
M 628 4666 
L 2053 4666 
Q 2838 4666 3239 4311 
Q 3641 3956 3641 3272 
Q 3641 2581 3239 2228 
Q 2838 1875 2053 1875 
L 1259 1875 
L 1259 0 
L 628 0 
L 628 4666 
z
" transform="scale(0.015625)"/>
      <path id="DejaVuSans-73" d="M 2834 3397 
L 2834 2853 
Q 2591 2978 2328 3040 
Q 2066 3103 1784 3103 
Q 1356 3103 1142 2972 
Q 928 2841 928 2578 
Q 928 2378 1081 2264 
Q 1234 2150 1697 2047 
L 1894 2003 
Q 2506 1872 2764 1633 
Q 3022 1394 3022 966 
Q 3022 478 2636 193 
Q 2250 -91 1575 -91 
Q 1294 -91 989 -36 
Q 684 19 347 128 
L 347 722 
Q 666 556 975 473 
Q 1284 391 1588 391 
Q 1994 391 2212 530 
Q 2431 669 2431 922 
Q 2431 1156 2273 1281 
Q 2116 1406 1581 1522 
L 1381 1569 
Q 847 1681 609 1914 
Q 372 2147 372 2553 
Q 372 3047 722 3315 
Q 1072 3584 1716 3584 
Q 2034 3584 2315 3537 
Q 2597 3491 2834 3397 
z
" transform="scale(0.015625)"/>
      <path id="DejaVuSans-71" d="M 947 1747 
Q 947 1113 1208 752 
Q 1469 391 1925 391 
Q 2381 391 2643 752 
Q 2906 1113 2906 1747 
Q 2906 2381 2643 2742 
Q 2381 3103 1925 3103 
Q 1469 3103 1208 2742 
Q 947 2381 947 1747 
z
M 2906 525 
Q 2725 213 2448 61 
Q 2172 -91 1784 -91 
Q 1150 -91 751 415 
Q 353 922 353 1747 
Q 353 2572 751 3078 
Q 1150 3584 1784 3584 
Q 2172 3584 2448 3432 
Q 2725 3281 2906 2969 
L 2906 3500 
L 3481 3500 
L 3481 -1331 
L 2906 -1331 
L 2906 525 
z
" transform="scale(0.015625)"/>
      <path id="DejaVuSans-75" d="M 544 1381 
L 544 3500 
L 1119 3500 
L 1119 1403 
Q 1119 906 1312 657 
Q 1506 409 1894 409 
Q 2359 409 2629 706 
Q 2900 1003 2900 1516 
L 2900 3500 
L 3475 3500 
L 3475 0 
L 2900 0 
L 2900 538 
Q 2691 219 2414 64 
Q 2138 -91 1772 -91 
Q 1169 -91 856 284 
Q 544 659 544 1381 
z
M 1991 3584 
L 1991 3584 
z
" transform="scale(0.015625)"/>
     </defs>
     <use xlink:href="#DejaVuSans-54"/>
     <use xlink:href="#DejaVuSans-72" transform="translate(46.333984 0)"/>
     <use xlink:href="#DejaVuSans-61" transform="translate(87.447266 0)"/>
     <use xlink:href="#DejaVuSans-64" transform="translate(148.726562 0)"/>
     <use xlink:href="#DejaVuSans-65" transform="translate(212.203125 0)"/>
     <use xlink:href="#DejaVuSans-20" transform="translate(273.726562 0)"/>
     <use xlink:href="#DejaVuSans-74" transform="translate(305.513672 0)"/>
     <use xlink:href="#DejaVuSans-69" transform="translate(344.722656 0)"/>
     <use xlink:href="#DejaVuSans-6d" transform="translate(372.505859 0)"/>
     <use xlink:href="#DejaVuSans-65" transform="translate(469.917969 0)"/>
     <use xlink:href="#DejaVuSans-20" transform="translate(531.441406 0)"/>
     <use xlink:href="#DejaVuSans-66" transform="translate(563.228516 0)"/>
     <use xlink:href="#DejaVuSans-6f" transform="translate(598.433594 0)"/>
     <use xlink:href="#DejaVuSans-72" transform="translate(659.615234 0)"/>
     <use xlink:href="#DejaVuSans-20" transform="translate(700.728516 0)"/>
     <use xlink:href="#DejaVuSans-6d" transform="translate(732.515625 0)"/>
     <use xlink:href="#DejaVuSans-6f" transform="translate(829.927734 0)"/>
     <use xlink:href="#DejaVuSans-6e" transform="translate(891.109375 0)"/>
     <use xlink:href="#DejaVuSans-65" transform="translate(954.488281 0)"/>
     <use xlink:href="#DejaVuSans-79" transform="translate(1016.011719 0)"/>
     <use xlink:href="#DejaVuSans-20" transform="translate(1075.191406 0)"/>
     <use xlink:href="#DejaVuSans-20" transform="translate(1106.978516 0)"/>
     <use xlink:href="#DejaVuSans-7c" transform="translate(1138.765625 0)"/>
     <use xlink:href="#DejaVuSans-20" transform="translate(1172.457031 0)"/>
     <use xlink:href="#DejaVuSans-20" transform="translate(1204.244141 0)"/>
     <use xlink:href="#DejaVuSans-4c" transform="translate(1236.03125 0)"/>
     <use xlink:href="#DejaVuSans-69" transform="translate(1291.744141 0)"/>
     <use xlink:href="#DejaVuSans-6e" transform="translate(1319.527344 0)"/>
     <use xlink:href="#DejaVuSans-65" transform="translate(1382.90625 0)"/>
     <use xlink:href="#DejaVuSans-61" transform="translate(1444.429688 0)"/>
     <use xlink:href="#DejaVuSans-72" transform="translate(1505.708984 0)"/>
     <use xlink:href="#DejaVuSans-20" transform="translate(1546.822266 0)"/>
     <use xlink:href="#DejaVuSans-69" transform="translate(1578.609375 0)"/>
     <use xlink:href="#DejaVuSans-6e" transform="translate(1606.392578 0)"/>
     <use xlink:href="#DejaVuSans-63" transform="translate(1669.771484 0)"/>
     <use xlink:href="#DejaVuSans-6f" transform="translate(1724.751953 0)"/>
     <use xlink:href="#DejaVuSans-6d" transform="translate(1785.933594 0)"/>
     <use xlink:href="#DejaVuSans-65" transform="translate(1883.345703 0)"/>
     <use xlink:href="#DejaVuSans-20" transform="translate(1944.869141 0)"/>
     <use xlink:href="#DejaVuSans-20" transform="translate(1976.65625 0)"/>
     <use xlink:href="#DejaVuSans-7c" transform="translate(2008.443359 0)"/>
     <use xlink:href="#DejaVuSans-20" transform="translate(2042.134766 0)"/>
     <use xlink:href="#DejaVuSans-20" transform="translate(2073.921875 0)"/>
     <use xlink:href="#DejaVuSans-50" transform="translate(2105.708984 0)"/>
     <use xlink:href="#DejaVuSans-65" transform="translate(2162.386719 0)"/>
     <use xlink:href="#DejaVuSans-72" transform="translate(2223.910156 0)"/>
     <use xlink:href="#DejaVuSans-6d" transform="translate(2263.273438 0)"/>
     <use xlink:href="#DejaVuSans-69" transform="translate(2360.685547 0)"/>
     <use xlink:href="#DejaVuSans-73" transform="translate(2388.46875 0)"/>
     <use xlink:href="#DejaVuSans-73" transform="translate(2440.568359 0)"/>
     <use xlink:href="#DejaVuSans-69" transform="translate(2492.667969 0)"/>
     <use xlink:href="#DejaVuSans-6f" transform="translate(2520.451172 0)"/>
     <use xlink:href="#DejaVuSans-6e" transform="translate(2581.632812 0)"/>
     <use xlink:href="#DejaVuSans-20" transform="translate(2645.011719 0)"/>
     <use xlink:href="#DejaVuSans-72" transform="translate(2676.798828 0)"/>
     <use xlink:href="#DejaVuSans-65" transform="translate(2715.662109 0)"/>
     <use xlink:href="#DejaVuSans-71" transform="translate(2777.185547 0)"/>
     <use xlink:href="#DejaVuSans-75" transform="translate(2840.662109 0)"/>
     <use xlink:href="#DejaVuSans-69" transform="translate(2904.041016 0)"/>
     <use xlink:href="#DejaVuSans-72" transform="translate(2931.824219 0)"/>
     <use xlink:href="#DejaVuSans-65" transform="translate(2970.6875 0)"/>
     <use xlink:href="#DejaVuSans-64" transform="translate(3032.210938 0)"/>
    </g>
   </g>
   <g id="text_5">
    <!-- Ceiling: 24 hours/day  |  Example: hourly consulting -->
    <g style="fill: #ffffff; opacity: 0.75" transform="translate(323.968125 436.582321) scale(0.08 -0.08)">
     <defs>
      <path id="DejaVuSans-Oblique-43" d="M 4447 4306 
L 4319 3641 
Q 4019 3944 3683 4091 
Q 3347 4238 2956 4238 
Q 2422 4238 2017 3981 
Q 1613 3725 1319 3200 
Q 1131 2863 1032 2486 
Q 934 2109 934 1728 
Q 934 1091 1264 756 
Q 1594 422 2222 422 
Q 2656 422 3056 561 
Q 3456 700 3834 978 
L 3688 231 
Q 3316 72 2936 -9 
Q 2556 -91 2175 -91 
Q 1278 -91 773 396 
Q 269 884 269 1753 
Q 269 2309 461 2846 
Q 653 3384 1013 3828 
Q 1394 4300 1883 4525 
Q 2372 4750 3022 4750 
Q 3422 4750 3780 4639 
Q 4138 4528 4447 4306 
z
" transform="scale(0.015625)"/>
      <path id="DejaVuSans-Oblique-3a" d="M 978 3309 
L 1638 3309 
L 1484 2516 
L 825 2516 
L 978 3309 
z
M 488 794 
L 1147 794 
L 991 0 
L 331 0 
L 488 794 
z
" transform="scale(0.015625)"/>
      <path id="DejaVuSans-Oblique-32" d="M 2950 2253 
L 934 525 
L 3163 525 
L 3053 0 
L 25 0 
L 128 531 
L 2234 2338 
Q 2656 2703 2832 2979 
Q 3009 3256 3009 3547 
Q 3009 3850 2796 4040 
Q 2584 4231 2241 4231 
Q 1944 4231 1581 4125 
Q 1219 4019 806 3816 
L 922 4441 
Q 1309 4594 1662 4672 
Q 2016 4750 2316 4750 
Q 2928 4750 3301 4425 
Q 3675 4100 3675 3572 
Q 3675 3216 3497 2892 
Q 3319 2569 2950 2253 
z
" transform="scale(0.015625)"/>
      <path id="DejaVuSans-Oblique-34" d="M 2753 4666 
L 3547 4666 
L 2950 1625 
L 3616 1625 
L 3513 1100 
L 2847 1100 
L 2638 0 
L 2009 0 
L 2222 1100 
L 116 1100 
L 238 1709 
L 2753 4666 
z
M 2809 4116 
L 728 1625 
L 2322 1625 
L 2809 4116 
z
" transform="scale(0.015625)"/>
      <path id="DejaVuSans-Oblique-73" d="M 3200 3397 
L 3091 2853 
Q 2863 2978 2609 3040 
Q 2356 3103 2088 3103 
Q 1634 3103 1373 2948 
Q 1113 2794 1113 2528 
Q 1113 2219 1719 2053 
Q 1766 2041 1788 2034 
L 1972 1978 
Q 2547 1819 2739 1644 
Q 2931 1469 2931 1166 
Q 2931 609 2489 259 
Q 2047 -91 1331 -91 
Q 1053 -91 747 -37 
Q 441 16 72 128 
L 184 722 
Q 500 559 806 475 
Q 1113 391 1394 391 
Q 1816 391 2080 572 
Q 2344 753 2344 1031 
Q 2344 1331 1650 1516 
L 1591 1531 
L 1394 1581 
Q 956 1697 753 1886 
Q 550 2075 550 2369 
Q 550 2928 970 3256 
Q 1391 3584 2113 3584 
Q 2397 3584 2667 3537 
Q 2938 3491 3200 3397 
z
" transform="scale(0.015625)"/>
      <path id="DejaVuSans-Oblique-2f" d="M 2175 4666 
L 2731 4666 
L 84 -594 
L -469 -594 
L 2175 4666 
z
" transform="scale(0.015625)"/>
      <path id="DejaVuSans-Oblique-64" d="M 2675 525 
Q 2444 222 2128 65 
Q 1813 -91 1428 -91 
Q 903 -91 598 267 
Q 294 625 294 1247 
Q 294 1766 478 2236 
Q 663 2706 1013 3078 
Q 1244 3325 1534 3454 
Q 1825 3584 2144 3584 
Q 2481 3584 2739 3421 
Q 2997 3259 3138 2956 
L 3513 4863 
L 4091 4863 
L 3144 0 
L 2566 0 
L 2675 525 
z
M 891 1350 
Q 891 897 1095 644 
Q 1300 391 1663 391 
Q 1931 391 2161 520 
Q 2391 650 2566 903 
Q 2750 1166 2856 1509 
Q 2963 1853 2963 2188 
Q 2963 2622 2758 2865 
Q 2553 3109 2194 3109 
Q 1922 3109 1687 2981 
Q 1453 2853 1288 2613 
Q 1106 2353 998 2009 
Q 891 1666 891 1350 
z
" transform="scale(0.015625)"/>
      <path id="DejaVuSans-Oblique-79" d="M 1588 -325 
Q 1188 -997 936 -1164 
Q 684 -1331 294 -1331 
L -159 -1331 
L -63 -850 
L 269 -850 
Q 509 -850 678 -719 
Q 847 -588 1056 -206 
L 1234 128 
L 459 3500 
L 1069 3500 
L 1650 819 
L 3256 3500 
L 3859 3500 
L 1588 -325 
z
" transform="scale(0.015625)"/>
      <path id="DejaVuSans-Oblique-7c" d="M 1344 4891 
L 1344 -1509 
L 813 -1509 
L 813 4891 
L 1344 4891 
z
" transform="scale(0.015625)"/>
      <path id="DejaVuSans-Oblique-45" d="M 1081 4666 
L 4031 4666 
L 3928 4134 
L 1606 4134 
L 1338 2753 
L 3566 2753 
L 3463 2222 
L 1234 2222 
L 909 531 
L 3284 531 
L 3181 0 
L 172 0 
L 1081 4666 
z
" transform="scale(0.015625)"/>
      <path id="DejaVuSans-Oblique-78" d="M 3841 3500 
L 2234 1784 
L 3219 0 
L 2559 0 
L 1819 1388 
L 531 0 
L -166 0 
L 1556 1844 
L 641 3500 
L 1300 3500 
L 1972 2234 
L 3144 3500 
L 3841 3500 
z
" transform="scale(0.015625)"/>
      <path id="DejaVuSans-Oblique-63" d="M 3431 3366 
L 3316 2797 
Q 3109 2947 2876 3022 
Q 2644 3097 2394 3097 
Q 2119 3097 1870 3000 
Q 1622 2903 1453 2725 
Q 1184 2453 1037 2087 
Q 891 1722 891 1331 
Q 891 859 1127 628 
Q 1363 397 1844 397 
Q 2081 397 2348 469 
Q 2616 541 2906 684 
L 2797 116 
Q 2547 13 2283 -39 
Q 2019 -91 1741 -91 
Q 1044 -91 669 257 
Q 294 606 294 1253 
Q 294 1797 489 2255 
Q 684 2713 1069 3078 
Q 1331 3328 1684 3456 
Q 2038 3584 2456 3584 
Q 2700 3584 2940 3529 
Q 3181 3475 3431 3366 
z
" transform="scale(0.015625)"/>
     </defs>
     <use xlink:href="#DejaVuSans-Oblique-43"/>
     <use xlink:href="#DejaVuSans-Oblique-65" transform="translate(69.824219 0)"/>
     <use xlink:href="#DejaVuSans-Oblique-69" transform="translate(131.347656 0)"/>
     <use xlink:href="#DejaVuSans-Oblique-6c" transform="translate(159.130859 0)"/>
     <use xlink:href="#DejaVuSans-Oblique-69" transform="translate(186.914062 0)"/>
     <use xlink:href="#DejaVuSans-Oblique-6e" transform="translate(214.697266 0)"/>
     <use xlink:href="#DejaVuSans-Oblique-67" transform="translate(278.076172 0)"/>
     <use xlink:href="#DejaVuSans-Oblique-3a" transform="translate(341.552734 0)"/>
     <use xlink:href="#DejaVuSans-Oblique-20" transform="translate(375.244141 0)"/>
     <use xlink:href="#DejaVuSans-Oblique-32" transform="translate(407.03125 0)"/>
     <use xlink:href="#DejaVuSans-Oblique-34" transform="translate(470.654297 0)"/>
     <use xlink:href="#DejaVuSans-Oblique-20" transform="translate(534.277344 0)"/>
     <use xlink:href="#DejaVuSans-Oblique-68" transform="translate(566.064453 0)"/>
     <use xlink:href="#DejaVuSans-Oblique-6f" transform="translate(629.443359 0)"/>
     <use xlink:href="#DejaVuSans-Oblique-75" transform="translate(690.625 0)"/>
     <use xlink:href="#DejaVuSans-Oblique-72" transform="translate(754.003906 0)"/>
     <use xlink:href="#DejaVuSans-Oblique-73" transform="translate(795.117188 0)"/>
     <use xlink:href="#DejaVuSans-Oblique-2f" transform="translate(847.216797 0)"/>
     <use xlink:href="#DejaVuSans-Oblique-64" transform="translate(880.908203 0)"/>
     <use xlink:href="#DejaVuSans-Oblique-61" transform="translate(944.384766 0)"/>
     <use xlink:href="#DejaVuSans-Oblique-79" transform="translate(1005.664062 0)"/>
     <use xlink:href="#DejaVuSans-Oblique-20" transform="translate(1064.84375 0)"/>
     <use xlink:href="#DejaVuSans-Oblique-20" transform="translate(1096.630859 0)"/>
     <use xlink:href="#DejaVuSans-Oblique-7c" transform="translate(1128.417969 0)"/>
     <use xlink:href="#DejaVuSans-Oblique-20" transform="translate(1162.109375 0)"/>
     <use xlink:href="#DejaVuSans-Oblique-20" transform="translate(1193.896484 0)"/>
     <use xlink:href="#DejaVuSans-Oblique-45" transform="translate(1225.683594 0)"/>
     <use xlink:href="#DejaVuSans-Oblique-78" transform="translate(1288.867188 0)"/>
     <use xlink:href="#DejaVuSans-Oblique-61" transform="translate(1348.046875 0)"/>
     <use xlink:href="#DejaVuSans-Oblique-6d" transform="translate(1409.326172 0)"/>
     <use xlink:href="#DejaVuSans-Oblique-70" transform="translate(1506.738281 0)"/>
     <use xlink:href="#DejaVuSans-Oblique-6c" transform="translate(1570.214844 0)"/>
     <use xlink:href="#DejaVuSans-Oblique-65" transform="translate(1597.998047 0)"/>
     <use xlink:href="#DejaVuSans-Oblique-3a" transform="translate(1659.521484 0)"/>
     <use xlink:href="#DejaVuSans-Oblique-20" transform="translate(1693.212891 0)"/>
     <use xlink:href="#DejaVuSans-Oblique-68" transform="translate(1725 0)"/>
     <use xlink:href="#DejaVuSans-Oblique-6f" transform="translate(1788.378906 0)"/>
     <use xlink:href="#DejaVuSans-Oblique-75" transform="translate(1849.560547 0)"/>
     <use xlink:href="#DejaVuSans-Oblique-72" transform="translate(1912.939453 0)"/>
     <use xlink:href="#DejaVuSans-Oblique-6c" transform="translate(1954.052734 0)"/>
     <use xlink:href="#DejaVuSans-Oblique-79" transform="translate(1981.835938 0)"/>
     <use xlink:href="#DejaVuSans-Oblique-20" transform="translate(2041.015625 0)"/>
     <use xlink:href="#DejaVuSans-Oblique-63" transform="translate(2072.802734 0)"/>
     <use xlink:href="#DejaVuSans-Oblique-6f" transform="translate(2127.783203 0)"/>
     <use xlink:href="#DejaVuSans-Oblique-6e" transform="translate(2188.964844 0)"/>
     <use xlink:href="#DejaVuSans-Oblique-73" transform="translate(2252.34375 0)"/>
     <use xlink:href="#DejaVuSans-Oblique-75" transform="translate(2304.443359 0)"/>
     <use xlink:href="#DejaVuSans-Oblique-6c" transform="translate(2367.822266 0)"/>
     <use xlink:href="#DejaVuSans-Oblique-74" transform="translate(2395.605469 0)"/>
     <use xlink:href="#DejaVuSans-Oblique-69" transform="translate(2434.814453 0)"/>
     <use xlink:href="#DejaVuSans-Oblique-6e" transform="translate(2462.597656 0)"/>
     <use xlink:href="#DejaVuSans-Oblique-67" transform="translate(2525.976562 0)"/>
    </g>
   </g>
   <g id="text_6">
    <!-- CAPITAL -->
    <g style="fill: #ffffff" transform="translate(395.144844 290.165982) scale(0.14 -0.14)">
     <defs>
      <path id="DejaVuSans-Bold-43" d="M 4288 256 
Q 3956 84 3597 -3 
Q 3238 -91 2847 -91 
Q 1681 -91 1000 561 
Q 319 1213 319 2328 
Q 319 3447 1000 4098 
Q 1681 4750 2847 4750 
Q 3238 4750 3597 4662 
Q 3956 4575 4288 4403 
L 4288 3438 
Q 3953 3666 3628 3772 
Q 3303 3878 2944 3878 
Q 2300 3878 1931 3465 
Q 1563 3053 1563 2328 
Q 1563 1606 1931 1193 
Q 2300 781 2944 781 
Q 3303 781 3628 887 
Q 3953 994 4288 1222 
L 4288 256 
z
" transform="scale(0.015625)"/>
      <path id="DejaVuSans-Bold-49" d="M 588 4666 
L 1791 4666 
L 1791 0 
L 588 0 
L 588 4666 
z
" transform="scale(0.015625)"/>
      <path id="DejaVuSans-Bold-54" d="M 31 4666 
L 4331 4666 
L 4331 3756 
L 2784 3756 
L 2784 0 
L 1581 0 
L 1581 3756 
L 31 3756 
L 31 4666 
z
" transform="scale(0.015625)"/>
     </defs>
     <use xlink:href="#DejaVuSans-Bold-43"/>
     <use xlink:href="#DejaVuSans-Bold-41" transform="translate(73.388672 0)"/>
     <use xlink:href="#DejaVuSans-Bold-50" transform="translate(150.78125 0)"/>
     <use xlink:href="#DejaVuSans-Bold-49" transform="translate(224.072266 0)"/>
     <use xlink:href="#DejaVuSans-Bold-54" transform="translate(261.279297 0)"/>
     <use xlink:href="#DejaVuSans-Bold-41" transform="translate(321.742188 0)"/>
     <use xlink:href="#DejaVuSans-Bold-4c" transform="translate(399.134766 0)"/>
    </g>
   </g>
   <g id="text_7">
    <!-- Money works for you  |  Requires accumulation first -->
    <g style="fill: #ffffff; opacity: 0.9" transform="translate(318.249609 312.668717) scale(0.085 -0.085)">
     <defs>
      <path id="DejaVuSans-4d" d="M 628 4666 
L 1569 4666 
L 2759 1491 
L 3956 4666 
L 4897 4666 
L 4897 0 
L 4281 0 
L 4281 4097 
L 3078 897 
L 2444 897 
L 1241 4097 
L 1241 0 
L 628 0 
L 628 4666 
z
" transform="scale(0.015625)"/>
      <path id="DejaVuSans-77" d="M 269 3500 
L 844 3500 
L 1563 769 
L 2278 3500 
L 2956 3500 
L 3675 769 
L 4391 3500 
L 4966 3500 
L 4050 0 
L 3372 0 
L 2619 2869 
L 1863 0 
L 1184 0 
L 269 3500 
z
" transform="scale(0.015625)"/>
      <path id="DejaVuSans-6b" d="M 581 4863 
L 1159 4863 
L 1159 1991 
L 2875 3500 
L 3609 3500 
L 1753 1863 
L 3688 0 
L 2938 0 
L 1159 1709 
L 1159 0 
L 581 0 
L 581 4863 
z
" transform="scale(0.015625)"/>
      <path id="DejaVuSans-52" d="M 2841 2188 
Q 3044 2119 3236 1894 
Q 3428 1669 3622 1275 
L 4263 0 
L 3584 0 
L 2988 1197 
Q 2756 1666 2539 1819 
Q 2322 1972 1947 1972 
L 1259 1972 
L 1259 0 
L 628 0 
L 628 4666 
L 2053 4666 
Q 2853 4666 3247 4331 
Q 3641 3997 3641 3322 
Q 3641 2881 3436 2590 
Q 3231 2300 2841 2188 
z
M 1259 4147 
L 1259 2491 
L 2053 2491 
Q 2509 2491 2742 2702 
Q 2975 2913 2975 3322 
Q 2975 3731 2742 3939 
Q 2509 4147 2053 4147 
L 1259 4147 
z
" transform="scale(0.015625)"/>
      <path id="DejaVuSans-6c" d="M 603 4863 
L 1178 4863 
L 1178 0 
L 603 0 
L 603 4863 
z
" transform="scale(0.015625)"/>
     </defs>
     <use xlink:href="#DejaVuSans-4d"/>
     <use xlink:href="#DejaVuSans-6f" transform="translate(86.279297 0)"/>
     <use xlink:href="#DejaVuSans-6e" transform="translate(147.460938 0)"/>
     <use xlink:href="#DejaVuSans-65" transform="translate(210.839844 0)"/>
     <use xlink:href="#DejaVuSans-79" transform="translate(272.363281 0)"/>
     <use xlink:href="#DejaVuSans-20" transform="translate(331.542969 0)"/>
     <use xlink:href="#DejaVuSans-77" transform="translate(363.330078 0)"/>
     <use xlink:href="#DejaVuSans-6f" transform="translate(445.117188 0)"/>
     <use xlink:href="#DejaVuSans-72" transform="translate(506.298828 0)"/>
     <use xlink:href="#DejaVuSans-6b" transform="translate(547.412109 0)"/>
     <use xlink:href="#DejaVuSans-73" transform="translate(605.322266 0)"/>
     <use xlink:href="#DejaVuSans-20" transform="translate(657.421875 0)"/>
     <use xlink:href="#DejaVuSans-66" transform="translate(689.208984 0)"/>
     <use xlink:href="#DejaVuSans-6f" transform="translate(724.414062 0)"/>
     <use xlink:href="#DejaVuSans-72" transform="translate(785.595703 0)"/>
     <use xlink:href="#DejaVuSans-20" transform="translate(826.708984 0)"/>
     <use xlink:href="#DejaVuSans-79" transform="translate(858.496094 0)"/>
     <use xlink:href="#DejaVuSans-6f" transform="translate(917.675781 0)"/>
     <use xlink:href="#DejaVuSans-75" transform="translate(978.857422 0)"/>
     <use xlink:href="#DejaVuSans-20" transform="translate(1042.236328 0)"/>
     <use xlink:href="#DejaVuSans-20" transform="translate(1074.023438 0)"/>
     <use xlink:href="#DejaVuSans-7c" transform="translate(1105.810547 0)"/>
     <use xlink:href="#DejaVuSans-20" transform="translate(1139.501953 0)"/>
     <use xlink:href="#DejaVuSans-20" transform="translate(1171.289062 0)"/>
     <use xlink:href="#DejaVuSans-52" transform="translate(1203.076172 0)"/>
     <use xlink:href="#DejaVuSans-65" transform="translate(1268.058594 0)"/>
     <use xlink:href="#DejaVuSans-71" transform="translate(1329.582031 0)"/>
     <use xlink:href="#DejaVuSans-75" transform="translate(1393.058594 0)"/>
     <use xlink:href="#DejaVuSans-69" transform="translate(1456.4375 0)"/>
     <use xlink:href="#DejaVuSans-72" transform="translate(1484.220703 0)"/>
     <use xlink:href="#DejaVuSans-65" transform="translate(1523.083984 0)"/>
     <use xlink:href="#DejaVuSans-73" transform="translate(1584.607422 0)"/>
     <use xlink:href="#DejaVuSans-20" transform="translate(1636.707031 0)"/>
     <use xlink:href="#DejaVuSans-61" transform="translate(1668.494141 0)"/>
     <use xlink:href="#DejaVuSans-63" transform="translate(1729.773438 0)"/>
     <use xlink:href="#DejaVuSans-63" transform="translate(1784.753906 0)"/>
     <use xlink:href="#DejaVuSans-75" transform="translate(1839.734375 0)"/>
     <use xlink:href="#DejaVuSans-6d" transform="translate(1903.113281 0)"/>
     <use xlink:href="#DejaVuSans-75" transform="translate(2000.525391 0)"/>
     <use xlink:href="#DejaVuSans-6c" transform="translate(2063.904297 0)"/>
     <use xlink:href="#DejaVuSans-61" transform="translate(2091.6875 0)"/>
     <use xlink:href="#DejaVuSans-74" transform="translate(2152.966797 0)"/>
     <use xlink:href="#DejaVuSans-69" transform="translate(2192.175781 0)"/>
     <use xlink:href="#DejaVuSans-6f" transform="translate(2219.958984 0)"/>
     <use xlink:href="#DejaVuSans-6e" transform="translate(2281.140625 0)"/>
     <use xlink:href="#DejaVuSans-20" transform="translate(2344.519531 0)"/>
     <use xlink:href="#DejaVuSans-66" transform="translate(2376.306641 0)"/>
     <use xlink:href="#DejaVuSans-69" transform="translate(2411.511719 0)"/>
     <use xlink:href="#DejaVuSans-72" transform="translate(2439.294922 0)"/>
     <use xlink:href="#DejaVuSans-73" transform="translate(2480.408203 0)"/>
     <use xlink:href="#DejaVuSans-74" transform="translate(2532.507812 0)"/>
    </g>
   </g>
   <g id="text_8">
    <!-- Ceiling: amount of capital  |  Example: investing, lending -->
    <g style="fill: #ffffff; opacity: 0.75" transform="translate(313.9075 333.210893) scale(0.08 -0.08)">
     <defs>
      <path id="DejaVuSans-Oblique-2c" d="M 575 794 
L 1234 794 
L 1131 256 
L 422 -744 
L 19 -744 
L 469 256 
L 575 794 
z
" transform="scale(0.015625)"/>
     </defs>
     <use xlink:href="#DejaVuSans-Oblique-43"/>
     <use xlink:href="#DejaVuSans-Oblique-65" transform="translate(69.824219 0)"/>
     <use xlink:href="#DejaVuSans-Oblique-69" transform="translate(131.347656 0)"/>
     <use xlink:href="#DejaVuSans-Oblique-6c" transform="translate(159.130859 0)"/>
     <use xlink:href="#DejaVuSans-Oblique-69" transform="translate(186.914062 0)"/>
     <use xlink:href="#DejaVuSans-Oblique-6e" transform="translate(214.697266 0)"/>
     <use xlink:href="#DejaVuSans-Oblique-67" transform="translate(278.076172 0)"/>
     <use xlink:href="#DejaVuSans-Oblique-3a" transform="translate(341.552734 0)"/>
     <use xlink:href="#DejaVuSans-Oblique-20" transform="translate(375.244141 0)"/>
     <use xlink:href="#DejaVuSans-Oblique-61" transform="translate(407.03125 0)"/>
     <use xlink:href="#DejaVuSans-Oblique-6d" transform="translate(468.310547 0)"/>
     <use xlink:href="#DejaVuSans-Oblique-6f" transform="translate(565.722656 0)"/>
     <use xlink:href="#DejaVuSans-Oblique-75" transform="translate(626.904297 0)"/>
     <use xlink:href="#DejaVuSans-Oblique-6e" transform="translate(690.283203 0)"/>
     <use xlink:href="#DejaVuSans-Oblique-74" transform="translate(753.662109 0)"/>
     <use xlink:href="#DejaVuSans-Oblique-20" transform="translate(792.871094 0)"/>
     <use xlink:href="#DejaVuSans-Oblique-6f" transform="translate(824.658203 0)"/>
     <use xlink:href="#DejaVuSans-Oblique-66" transform="translate(885.839844 0)"/>
     <use xlink:href="#DejaVuSans-Oblique-20" transform="translate(921.044922 0)"/>
     <use xlink:href="#DejaVuSans-Oblique-63" transform="translate(952.832031 0)"/>
     <use xlink:href="#DejaVuSans-Oblique-61" transform="translate(1007.8125 0)"/>
     <use xlink:href="#DejaVuSans-Oblique-70" transform="translate(1069.091797 0)"/>
     <use xlink:href="#DejaVuSans-Oblique-69" transform="translate(1132.568359 0)"/>
     <use xlink:href="#DejaVuSans-Oblique-74" transform="translate(1160.351562 0)"/>
     <use xlink:href="#DejaVuSans-Oblique-61" transform="translate(1199.560547 0)"/>
     <use xlink:href="#DejaVuSans-Oblique-6c" transform="translate(1260.839844 0)"/>
     <use xlink:href="#DejaVuSans-Oblique-20" transform="translate(1288.623047 0)"/>
     <use xlink:href="#DejaVuSans-Oblique-20" transform="translate(1320.410156 0)"/>
     <use xlink:href="#DejaVuSans-Oblique-7c" transform="translate(1352.197266 0)"/>
     <use xlink:href="#DejaVuSans-Oblique-20" transform="translate(1385.888672 0)"/>
     <use xlink:href="#DejaVuSans-Oblique-20" transform="translate(1417.675781 0)"/>
     <use xlink:href="#DejaVuSans-Oblique-45" transform="translate(1449.462891 0)"/>
     <use xlink:href="#DejaVuSans-Oblique-78" transform="translate(1512.646484 0)"/>
     <use xlink:href="#DejaVuSans-Oblique-61" transform="translate(1571.826172 0)"/>
     <use xlink:href="#DejaVuSans-Oblique-6d" transform="translate(1633.105469 0)"/>
     <use xlink:href="#DejaVuSans-Oblique-70" transform="translate(1730.517578 0)"/>
     <use xlink:href="#DejaVuSans-Oblique-6c" transform="translate(1793.994141 0)"/>
     <use xlink:href="#DejaVuSans-Oblique-65" transform="translate(1821.777344 0)"/>
     <use xlink:href="#DejaVuSans-Oblique-3a" transform="translate(1883.300781 0)"/>
     <use xlink:href="#DejaVuSans-Oblique-20" transform="translate(1916.992188 0)"/>
     <use xlink:href="#DejaVuSans-Oblique-69" transform="translate(1948.779297 0)"/>
     <use xlink:href="#DejaVuSans-Oblique-6e" transform="translate(1976.5625 0)"/>
     <use xlink:href="#DejaVuSans-Oblique-76" transform="translate(2039.941406 0)"/>
     <use xlink:href="#DejaVuSans-Oblique-65" transform="translate(2099.121094 0)"/>
     <use xlink:href="#DejaVuSans-Oblique-73" transform="translate(2160.644531 0)"/>
     <use xlink:href="#DejaVuSans-Oblique-74" transform="translate(2212.744141 0)"/>
     <use xlink:href="#DejaVuSans-Oblique-69" transform="translate(2251.953125 0)"/>
     <use xlink:href="#DejaVuSans-Oblique-6e" transform="translate(2279.736328 0)"/>
     <use xlink:href="#DejaVuSans-Oblique-67" transform="translate(2343.115234 0)"/>
     <use xlink:href="#DejaVuSans-Oblique-2c" transform="translate(2406.591797 0)"/>
     <use xlink:href="#DejaVuSans-Oblique-20" transform="translate(2438.378906 0)"/>
     <use xlink:href="#DejaVuSans-Oblique-6c" transform="translate(2470.166016 0)"/>
     <use xlink:href="#DejaVuSans-Oblique-65" transform="translate(2497.949219 0)"/>
     <use xlink:href="#DejaVuSans-Oblique-6e" transform="translate(2559.472656 0)"/>
     <use xlink:href="#DejaVuSans-Oblique-64" transform="translate(2622.851562 0)"/>
     <use xlink:href="#DejaVuSans-Oblique-69" transform="translate(2686.328125 0)"/>
     <use xlink:href="#DejaVuSans-Oblique-6e" transform="translate(2714.111328 0)"/>
     <use xlink:href="#DejaVuSans-Oblique-67" transform="translate(2777.490234 0)"/>
    </g>
   </g>
   <g id="text_9">
    <!-- CODE &amp; MEDIA -->
    <g style="fill: #ffffff" transform="translate(369.305 186.794554) scale(0.14 -0.14)">
     <defs>
      <path id="DejaVuSans-Bold-44" d="M 1791 3756 
L 1791 909 
L 2222 909 
Q 2959 909 3348 1275 
Q 3738 1641 3738 2338 
Q 3738 3031 3350 3393 
Q 2963 3756 2222 3756 
L 1791 3756 
z
M 588 4666 
L 1856 4666 
Q 2919 4666 3439 4514 
Q 3959 4363 4331 4000 
Q 4659 3684 4818 3271 
Q 4978 2859 4978 2338 
Q 4978 1809 4818 1395 
Q 4659 981 4331 666 
Q 3956 303 3431 151 
Q 2906 0 1856 0 
L 588 0 
L 588 4666 
z
" transform="scale(0.015625)"/>
      <path id="DejaVuSans-Bold-45" d="M 588 4666 
L 3834 4666 
L 3834 3756 
L 1791 3756 
L 1791 2888 
L 3713 2888 
L 3713 1978 
L 1791 1978 
L 1791 909 
L 3903 909 
L 3903 0 
L 588 0 
L 588 4666 
z
" transform="scale(0.015625)"/>
      <path id="DejaVuSans-Bold-26" d="M 2497 3097 
L 3775 1691 
Q 3941 1909 4027 2181 
Q 4113 2453 4128 2797 
L 5100 2797 
Q 5053 2228 4879 1784 
Q 4706 1341 4397 1006 
L 5313 0 
L 3988 0 
L 3681 341 
Q 3353 122 2990 15 
Q 2628 -91 2222 -91 
Q 1400 -91 892 342 
Q 384 775 384 1459 
Q 384 1916 607 2267 
Q 831 2619 1338 2950 
Q 1206 3116 1143 3281 
Q 1081 3447 1081 3628 
Q 1081 4138 1478 4444 
Q 1875 4750 2534 4750 
Q 2819 4750 3126 4704 
Q 3434 4659 3769 4569 
L 3769 3700 
Q 3475 3850 3212 3922 
Q 2950 3994 2700 3994 
Q 2459 3994 2326 3901 
Q 2194 3809 2194 3641 
Q 2194 3534 2270 3398 
Q 2347 3263 2497 3097 
z
M 1875 2322 
Q 1672 2175 1569 1989 
Q 1466 1803 1466 1581 
Q 1466 1222 1731 969 
Q 1997 716 2369 716 
Q 2578 716 2759 780 
Q 2941 844 3097 972 
L 1875 2322 
z
" transform="scale(0.015625)"/>
      <path id="DejaVuSans-Bold-4d" d="M 588 4666 
L 2119 4666 
L 3181 2169 
L 4250 4666 
L 5778 4666 
L 5778 0 
L 4641 0 
L 4641 3413 
L 3566 897 
L 2803 897 
L 1728 3413 
L 1728 0 
L 588 0 
L 588 4666 
z
" transform="scale(0.015625)"/>
     </defs>
     <use xlink:href="#DejaVuSans-Bold-43"/>
     <use xlink:href="#DejaVuSans-Bold-4f" transform="translate(73.388672 0)"/>
     <use xlink:href="#DejaVuSans-Bold-44" transform="translate(158.398438 0)"/>
     <use xlink:href="#DejaVuSans-Bold-45" transform="translate(241.40625 0)"/>
     <use xlink:href="#DejaVuSans-Bold-20" transform="translate(309.716797 0)"/>
     <use xlink:href="#DejaVuSans-Bold-26" transform="translate(344.53125 0)"/>
     <use xlink:href="#DejaVuSans-Bold-20" transform="translate(431.738281 0)"/>
     <use xlink:href="#DejaVuSans-Bold-4d" transform="translate(466.552734 0)"/>
     <use xlink:href="#DejaVuSans-Bold-45" transform="translate(566.064453 0)"/>
     <use xlink:href="#DejaVuSans-Bold-44" transform="translate(634.375 0)"/>
     <use xlink:href="#DejaVuSans-Bold-49" transform="translate(717.382812 0)"/>
     <use xlink:href="#DejaVuSans-Bold-41" transform="translate(754.589844 0)"/>
    </g>
   </g>
   <g id="text_10">
    <!-- Zero marginal cost  |  Permissionless  |  Infinite scale -->
    <g style="fill: #ffffff; opacity: 0.9" transform="translate(315.580078 209.297288) scale(0.085 -0.085)">
     <defs>
      <path id="DejaVuSans-5a" d="M 359 4666 
L 4025 4666 
L 4025 4184 
L 1075 531 
L 4097 531 
L 4097 0 
L 288 0 
L 288 481 
L 3238 4134 
L 359 4134 
L 359 4666 
z
" transform="scale(0.015625)"/>
      <path id="DejaVuSans-67" d="M 2906 1791 
Q 2906 2416 2648 2759 
Q 2391 3103 1925 3103 
Q 1463 3103 1205 2759 
Q 947 2416 947 1791 
Q 947 1169 1205 825 
Q 1463 481 1925 481 
Q 2391 481 2648 825 
Q 2906 1169 2906 1791 
z
M 3481 434 
Q 3481 -459 3084 -895 
Q 2688 -1331 1869 -1331 
Q 1566 -1331 1297 -1286 
Q 1028 -1241 775 -1147 
L 775 -588 
Q 1028 -725 1275 -790 
Q 1522 -856 1778 -856 
Q 2344 -856 2625 -561 
Q 2906 -266 2906 331 
L 2906 616 
Q 2728 306 2450 153 
Q 2172 0 1784 0 
Q 1141 0 747 490 
Q 353 981 353 1791 
Q 353 2603 747 3093 
Q 1141 3584 1784 3584 
Q 2172 3584 2450 3431 
Q 2728 3278 2906 2969 
L 2906 3500 
L 3481 3500 
L 3481 434 
z
" transform="scale(0.015625)"/>
      <path id="DejaVuSans-49" d="M 628 4666 
L 1259 4666 
L 1259 0 
L 628 0 
L 628 4666 
z
" transform="scale(0.015625)"/>
     </defs>
     <use xlink:href="#DejaVuSans-5a"/>
     <use xlink:href="#DejaVuSans-65" transform="translate(68.505859 0)"/>
     <use xlink:href="#DejaVuSans-72" transform="translate(130.029297 0)"/>
     <use xlink:href="#DejaVuSans-6f" transform="translate(168.892578 0)"/>
     <use xlink:href="#DejaVuSans-20" transform="translate(230.074219 0)"/>
     <use xlink:href="#DejaVuSans-6d" transform="translate(261.861328 0)"/>
     <use xlink:href="#DejaVuSans-61" transform="translate(359.273438 0)"/>
     <use xlink:href="#DejaVuSans-72" transform="translate(420.552734 0)"/>
     <use xlink:href="#DejaVuSans-67" transform="translate(459.916016 0)"/>
     <use xlink:href="#DejaVuSans-69" transform="translate(523.392578 0)"/>
     <use xlink:href="#DejaVuSans-6e" transform="translate(551.175781 0)"/>
     <use xlink:href="#DejaVuSans-61" transform="translate(614.554688 0)"/>
     <use xlink:href="#DejaVuSans-6c" transform="translate(675.833984 0)"/>
     <use xlink:href="#DejaVuSans-20" transform="translate(703.617188 0)"/>
     <use xlink:href="#DejaVuSans-63" transform="translate(735.404297 0)"/>
     <use xlink:href="#DejaVuSans-6f" transform="translate(790.384766 0)"/>
     <use xlink:href="#DejaVuSans-73" transform="translate(851.566406 0)"/>
     <use xlink:href="#DejaVuSans-74" transform="translate(903.666016 0)"/>
     <use xlink:href="#DejaVuSans-20" transform="translate(942.875 0)"/>
     <use xlink:href="#DejaVuSans-20" transform="translate(974.662109 0)"/>
     <use xlink:href="#DejaVuSans-7c" transform="translate(1006.449219 0)"/>
     <use xlink:href="#DejaVuSans-20" transform="translate(1040.140625 0)"/>
     <use xlink:href="#DejaVuSans-20" transform="translate(1071.927734 0)"/>
     <use xlink:href="#DejaVuSans-50" transform="translate(1103.714844 0)"/>
     <use xlink:href="#DejaVuSans-65" transform="translate(1160.392578 0)"/>
     <use xlink:href="#DejaVuSans-72" transform="translate(1221.916016 0)"/>
     <use xlink:href="#DejaVuSans-6d" transform="translate(1261.279297 0)"/>
     <use xlink:href="#DejaVuSans-69" transform="translate(1358.691406 0)"/>
     <use xlink:href="#DejaVuSans-73" transform="translate(1386.474609 0)"/>
     <use xlink:href="#DejaVuSans-73" transform="translate(1438.574219 0)"/>
     <use xlink:href="#DejaVuSans-69" transform="translate(1490.673828 0)"/>
     <use xlink:href="#DejaVuSans-6f" transform="translate(1518.457031 0)"/>
     <use xlink:href="#DejaVuSans-6e" transform="translate(1579.638672 0)"/>
     <use xlink:href="#DejaVuSans-6c" transform="translate(1643.017578 0)"/>
     <use xlink:href="#DejaVuSans-65" transform="translate(1670.800781 0)"/>
     <use xlink:href="#DejaVuSans-73" transform="translate(1732.324219 0)"/>
     <use xlink:href="#DejaVuSans-73" transform="translate(1784.423828 0)"/>
     <use xlink:href="#DejaVuSans-20" transform="translate(1836.523438 0)"/>
     <use xlink:href="#DejaVuSans-20" transform="translate(1868.310547 0)"/>
     <use xlink:href="#DejaVuSans-7c" transform="translate(1900.097656 0)"/>
     <use xlink:href="#DejaVuSans-20" transform="translate(1933.789062 0)"/>
     <use xlink:href="#DejaVuSans-20" transform="translate(1965.576172 0)"/>
     <use xlink:href="#DejaVuSans-49" transform="translate(1997.363281 0)"/>
     <use xlink:href="#DejaVuSans-6e" transform="translate(2026.855469 0)"/>
     <use xlink:href="#DejaVuSans-66" transform="translate(2090.234375 0)"/>
     <use xlink:href="#DejaVuSans-69" transform="translate(2125.439453 0)"/>
     <use xlink:href="#DejaVuSans-6e" transform="translate(2153.222656 0)"/>
     <use xlink:href="#DejaVuSans-69" transform="translate(2216.601562 0)"/>
     <use xlink:href="#DejaVuSans-74" transform="translate(2244.384766 0)"/>
     <use xlink:href="#DejaVuSans-65" transform="translate(2283.59375 0)"/>
     <use xlink:href="#DejaVuSans-20" transform="translate(2345.117188 0)"/>
     <use xlink:href="#DejaVuSans-73" transform="translate(2376.904297 0)"/>
     <use xlink:href="#DejaVuSans-63" transform="translate(2429.003906 0)"/>
     <use xlink:href="#DejaVuSans-61" transform="translate(2483.984375 0)"/>
     <use xlink:href="#DejaVuSans-6c" transform="translate(2545.263672 0)"/>
     <use xlink:href="#DejaVuSans-65" transform="translate(2573.046875 0)"/>
    </g>
   </g>
   <g id="text_11">
    <!-- Ceiling: none  |  Example: SaaS, blog, open source, podcast -->
    <g style="fill: #ffffff; opacity: 0.75" transform="translate(308.17875 229.839464) scale(0.08 -0.08)">
     <defs>
      <path id="DejaVuSans-Oblique-53" d="M 3859 4513 
L 3738 3897 
Q 3422 4066 3111 4152 
Q 2800 4238 2509 4238 
Q 1944 4238 1609 3991 
Q 1275 3744 1275 3334 
Q 1275 3109 1398 2989 
Q 1522 2869 2034 2731 
L 2413 2638 
Q 3053 2472 3303 2217 
Q 3553 1963 3553 1503 
Q 3553 797 2998 353 
Q 2444 -91 1538 -91 
Q 1166 -91 791 -17 
Q 416 56 38 206 
L 166 856 
Q 513 641 861 531 
Q 1209 422 1556 422 
Q 2147 422 2503 684 
Q 2859 947 2859 1369 
Q 2859 1650 2717 1795 
Q 2575 1941 2106 2059 
L 1728 2156 
Q 1081 2325 845 2545 
Q 609 2766 609 3163 
Q 609 3859 1145 4304 
Q 1681 4750 2541 4750 
Q 2875 4750 3203 4690 
Q 3531 4631 3859 4513 
z
" transform="scale(0.015625)"/>
      <path id="DejaVuSans-Oblique-62" d="M 3169 2138 
Q 3169 2591 2961 2847 
Q 2753 3103 2388 3103 
Q 2122 3103 1889 2973 
Q 1656 2844 1484 2597 
Q 1303 2338 1198 1995 
Q 1094 1653 1094 1313 
Q 1094 881 1298 636 
Q 1503 391 1863 391 
Q 2134 391 2365 517 
Q 2597 644 2772 891 
Q 2950 1147 3059 1487 
Q 3169 1828 3169 2138 
z
M 1381 2969 
Q 1594 3256 1914 3420 
Q 2234 3584 2584 3584 
Q 3122 3584 3439 3221 
Q 3756 2859 3756 2241 
Q 3756 1734 3570 1259 
Q 3384 784 3041 416 
Q 2816 172 2522 40 
Q 2228 -91 1906 -91 
Q 1566 -91 1316 65 
Q 1066 222 909 531 
L 806 0 
L 231 0 
L 1178 4863 
L 1753 4863 
L 1381 2969 
z
" transform="scale(0.015625)"/>
     </defs>
     <use xlink:href="#DejaVuSans-Oblique-43"/>
     <use xlink:href="#DejaVuSans-Oblique-65" transform="translate(69.824219 0)"/>
     <use xlink:href="#DejaVuSans-Oblique-69" transform="translate(131.347656 0)"/>
     <use xlink:href="#DejaVuSans-Oblique-6c" transform="translate(159.130859 0)"/>
     <use xlink:href="#DejaVuSans-Oblique-69" transform="translate(186.914062 0)"/>
     <use xlink:href="#DejaVuSans-Oblique-6e" transform="translate(214.697266 0)"/>
     <use xlink:href="#DejaVuSans-Oblique-67" transform="translate(278.076172 0)"/>
     <use xlink:href="#DejaVuSans-Oblique-3a" transform="translate(341.552734 0)"/>
     <use xlink:href="#DejaVuSans-Oblique-20" transform="translate(375.244141 0)"/>
     <use xlink:href="#DejaVuSans-Oblique-6e" transform="translate(407.03125 0)"/>
     <use xlink:href="#DejaVuSans-Oblique-6f" transform="translate(470.410156 0)"/>
     <use xlink:href="#DejaVuSans-Oblique-6e" transform="translate(531.591797 0)"/>
     <use xlink:href="#DejaVuSans-Oblique-65" transform="translate(594.970703 0)"/>
     <use xlink:href="#DejaVuSans-Oblique-20" transform="translate(656.494141 0)"/>
     <use xlink:href="#DejaVuSans-Oblique-20" transform="translate(688.28125 0)"/>
     <use xlink:href="#DejaVuSans-Oblique-7c" transform="translate(720.068359 0)"/>
     <use xlink:href="#DejaVuSans-Oblique-20" transform="translate(753.759766 0)"/>
     <use xlink:href="#DejaVuSans-Oblique-20" transform="translate(785.546875 0)"/>
     <use xlink:href="#DejaVuSans-Oblique-45" transform="translate(817.333984 0)"/>
     <use xlink:href="#DejaVuSans-Oblique-78" transform="translate(880.517578 0)"/>
     <use xlink:href="#DejaVuSans-Oblique-61" transform="translate(939.697266 0)"/>
     <use xlink:href="#DejaVuSans-Oblique-6d" transform="translate(1000.976562 0)"/>
     <use xlink:href="#DejaVuSans-Oblique-70" transform="translate(1098.388672 0)"/>
     <use xlink:href="#DejaVuSans-Oblique-6c" transform="translate(1161.865234 0)"/>
     <use xlink:href="#DejaVuSans-Oblique-65" transform="translate(1189.648438 0)"/>
     <use xlink:href="#DejaVuSans-Oblique-3a" transform="translate(1251.171875 0)"/>
     <use xlink:href="#DejaVuSans-Oblique-20" transform="translate(1284.863281 0)"/>
     <use xlink:href="#DejaVuSans-Oblique-53" transform="translate(1316.650391 0)"/>
     <use xlink:href="#DejaVuSans-Oblique-61" transform="translate(1380.126953 0)"/>
     <use xlink:href="#DejaVuSans-Oblique-61" transform="translate(1441.40625 0)"/>
     <use xlink:href="#DejaVuSans-Oblique-53" transform="translate(1502.685547 0)"/>
     <use xlink:href="#DejaVuSans-Oblique-2c" transform="translate(1566.162109 0)"/>
     <use xlink:href="#DejaVuSans-Oblique-20" transform="translate(1597.949219 0)"/>
     <use xlink:href="#DejaVuSans-Oblique-62" transform="translate(1629.736328 0)"/>
     <use xlink:href="#DejaVuSans-Oblique-6c" transform="translate(1693.212891 0)"/>
     <use xlink:href="#DejaVuSans-Oblique-6f" transform="translate(1720.996094 0)"/>
     <use xlink:href="#DejaVuSans-Oblique-67" transform="translate(1782.177734 0)"/>
     <use xlink:href="#DejaVuSans-Oblique-2c" transform="translate(1845.654297 0)"/>
     <use xlink:href="#DejaVuSans-Oblique-20" transform="translate(1877.441406 0)"/>
     <use xlink:href="#DejaVuSans-Oblique-6f" transform="translate(1909.228516 0)"/>
     <use xlink:href="#DejaVuSans-Oblique-70" transform="translate(1970.410156 0)"/>
     <use xlink:href="#DejaVuSans-Oblique-65" transform="translate(2033.886719 0)"/>
     <use xlink:href="#DejaVuSans-Oblique-6e" transform="translate(2095.410156 0)"/>
     <use xlink:href="#DejaVuSans-Oblique-20" transform="translate(2158.789062 0)"/>
     <use xlink:href="#DejaVuSans-Oblique-73" transform="translate(2190.576172 0)"/>
     <use xlink:href="#DejaVuSans-Oblique-6f" transform="translate(2242.675781 0)"/>
     <use xlink:href="#DejaVuSans-Oblique-75" transform="translate(2303.857422 0)"/>
     <use xlink:href="#DejaVuSans-Oblique-72" transform="translate(2367.236328 0)"/>
     <use xlink:href="#DejaVuSans-Oblique-63" transform="translate(2408.349609 0)"/>
     <use xlink:href="#DejaVuSans-Oblique-65" transform="translate(2463.330078 0)"/>
     <use xlink:href="#DejaVuSans-Oblique-2c" transform="translate(2524.853516 0)"/>
     <use xlink:href="#DejaVuSans-Oblique-20" transform="translate(2556.640625 0)"/>
     <use xlink:href="#DejaVuSans-Oblique-70" transform="translate(2588.427734 0)"/>
     <use xlink:href="#DejaVuSans-Oblique-6f" transform="translate(2651.904297 0)"/>
     <use xlink:href="#DejaVuSans-Oblique-64" transform="translate(2713.085938 0)"/>
     <use xlink:href="#DejaVuSans-Oblique-63" transform="translate(2776.5625 0)"/>
     <use xlink:href="#DejaVuSans-Oblique-61" transform="translate(2831.542969 0)"/>
     <use xlink:href="#DejaVuSans-Oblique-73" transform="translate(2892.822266 0)"/>
     <use xlink:href="#DejaVuSans-Oblique-74" transform="translate(2944.921875 0)"/>
    </g>
   </g>
   <g id="patch_6">
    <path d="M 791.844 408.350629 
Q 791.844 375.891056 791.844 345.667552 
" style="fill: none; stroke: #333333; stroke-width: 2; stroke-linecap: round"/>
    <path d="M 789.844 349.667552 
L 791.844 345.667552 
L 793.844 349.667552 
" style="fill: none; stroke: #333333; stroke-width: 2; stroke-linecap: round"/>
   </g>
   <g id="patch_7">
    <path d="M 791.844 304.979201 
Q 791.844 272.519628 791.844 242.296123 
" style="fill: none; stroke: #333333; stroke-width: 2; stroke-linecap: round"/>
    <path d="M 789.844 246.296123 
L 791.844 242.296123 
L 793.844 246.296123 
" style="fill: none; stroke: #333333; stroke-width: 2; stroke-linecap: round"/>
   </g>
   <g id="text_12">
    <!-- More -->
    <g style="fill: #333333" transform="translate(800.020078 328.506408) scale(0.09 -0.09)">
     <defs>
      <path id="DejaVuSans-Bold-6f" d="M 2203 2784 
Q 1831 2784 1636 2517 
Q 1441 2250 1441 1747 
Q 1441 1244 1636 976 
Q 1831 709 2203 709 
Q 2569 709 2762 976 
Q 2956 1244 2956 1747 
Q 2956 2250 2762 2517 
Q 2569 2784 2203 2784 
z
M 2203 3584 
Q 3106 3584 3614 3096 
Q 4122 2609 4122 1747 
Q 4122 884 3614 396 
Q 3106 -91 2203 -91 
Q 1297 -91 786 396 
Q 275 884 275 1747 
Q 275 2609 786 3096 
Q 1297 3584 2203 3584 
z
" transform="scale(0.015625)"/>
     </defs>
     <use xlink:href="#DejaVuSans-Bold-4d"/>
     <use xlink:href="#DejaVuSans-Bold-6f" transform="translate(99.511719 0)"/>
     <use xlink:href="#DejaVuSans-Bold-72" transform="translate(168.212891 0)"/>
     <use xlink:href="#DejaVuSans-Bold-65" transform="translate(217.529297 0)"/>
    </g>
    <!-- leverage -->
    <g style="fill: #333333" transform="translate(790.751484 338.58444) scale(0.09 -0.09)">
     <use xlink:href="#DejaVuSans-Bold-6c"/>
     <use xlink:href="#DejaVuSans-Bold-65" transform="translate(34.277344 0)"/>
     <use xlink:href="#DejaVuSans-Bold-76" transform="translate(102.099609 0)"/>
     <use xlink:href="#DejaVuSans-Bold-65" transform="translate(167.285156 0)"/>
     <use xlink:href="#DejaVuSans-Bold-72" transform="translate(235.107422 0)"/>
     <use xlink:href="#DejaVuSans-Bold-61" transform="translate(284.423828 0)"/>
     <use xlink:href="#DejaVuSans-Bold-67" transform="translate(351.904297 0)"/>
     <use xlink:href="#DejaVuSans-Bold-65" transform="translate(423.486328 0)"/>
    </g>
   </g>
   <g id="text_13">
    <!-- More -->
    <g style="fill: #333333" transform="translate(800.020078 225.170136) scale(0.09 -0.09)">
     <use xlink:href="#DejaVuSans-Bold-4d"/>
     <use xlink:href="#DejaVuSans-Bold-6f" transform="translate(99.511719 0)"/>
     <use xlink:href="#DejaVuSans-Bold-72" transform="translate(168.212891 0)"/>
     <use xlink:href="#DejaVuSans-Bold-65" transform="translate(217.529297 0)"/>
    </g>
    <!-- freedom -->
    <g style="fill: #333333" transform="translate(791.578359 235.248167) scale(0.09 -0.09)">
     <defs>
      <path id="DejaVuSans-Bold-66" d="M 2841 4863 
L 2841 4128 
L 2222 4128 
Q 1984 4128 1890 4042 
Q 1797 3956 1797 3744 
L 1797 3500 
L 2753 3500 
L 2753 2700 
L 1797 2700 
L 1797 0 
L 678 0 
L 678 2700 
L 122 2700 
L 122 3500 
L 678 3500 
L 678 3744 
Q 678 4316 997 4589 
Q 1316 4863 1984 4863 
L 2841 4863 
z
" transform="scale(0.015625)"/>
     </defs>
     <use xlink:href="#DejaVuSans-Bold-66"/>
     <use xlink:href="#DejaVuSans-Bold-72" transform="translate(43.505859 0)"/>
     <use xlink:href="#DejaVuSans-Bold-65" transform="translate(92.822266 0)"/>
     <use xlink:href="#DejaVuSans-Bold-65" transform="translate(160.644531 0)"/>
     <use xlink:href="#DejaVuSans-Bold-64" transform="translate(228.466797 0)"/>
     <use xlink:href="#DejaVuSans-Bold-6f" transform="translate(300.048828 0)"/>
     <use xlink:href="#DejaVuSans-Bold-6d" transform="translate(368.75 0)"/>
    </g>
   </g>
   <g id="text_14">
    <!-- "Code and media are permissionless leverage"  — Naval Ravikant -->
    <g style="fill: #ffffff" transform="translate(243.186406 106.400312) scale(0.1 -0.1)">
     <defs>
      <path id="DejaVuSans-BoldOblique-22" d="M 2725 4666 
L 2725 2931 
L 1984 2931 
L 1984 4666 
L 2725 4666 
z
M 1350 4666 
L 1350 2931 
L 609 2931 
L 609 4666 
L 1350 4666 
z
" transform="scale(0.015625)"/>
      <path id="DejaVuSans-BoldOblique-43" d="M 3878 219 
Q 3447 66 3050 -12 
Q 2653 -91 2297 -91 
Q 1356 -91 793 425 
Q 231 941 231 1791 
Q 231 2350 409 2845 
Q 588 3341 934 3750 
Q 1344 4231 1920 4490 
Q 2497 4750 3163 4750 
Q 3525 4750 3890 4664 
Q 4256 4578 4634 4403 
L 4441 3438 
Q 4141 3666 3837 3772 
Q 3534 3878 3188 3878 
Q 2466 3878 1978 3322 
Q 1491 2766 1491 1931 
Q 1491 1394 1791 1087 
Q 2091 781 2619 781 
Q 2934 781 3289 895 
Q 3644 1009 4084 1253 
L 3878 219 
z
" transform="scale(0.015625)"/>
      <path id="DejaVuSans-BoldOblique-6f" d="M 2400 2784 
Q 1966 2784 1684 2390 
Q 1403 1997 1403 1388 
Q 1403 1056 1554 882 
Q 1706 709 1997 709 
Q 2431 709 2712 1104 
Q 2994 1500 2994 2113 
Q 2994 2441 2842 2612 
Q 2691 2784 2400 2784 
z
M 2491 3584 
Q 3272 3584 3719 3187 
Q 4166 2791 4166 2106 
Q 4166 1709 4025 1336 
Q 3884 963 3616 653 
Q 3297 284 2862 96 
Q 2428 -91 1894 -91 
Q 1122 -91 676 306 
Q 231 703 231 1388 
Q 231 1781 375 2157 
Q 519 2534 788 2847 
Q 1100 3209 1533 3396 
Q 1966 3584 2491 3584 
z
" transform="scale(0.015625)"/>
      <path id="DejaVuSans-BoldOblique-64" d="M 1966 722 
Q 2397 722 2667 1119 
Q 2938 1516 2938 2156 
Q 2938 2447 2786 2609 
Q 2634 2772 2363 2772 
Q 1938 2772 1663 2380 
Q 1388 1988 1388 1375 
Q 1388 1056 1536 889 
Q 1684 722 1966 722 
z
M 3144 2988 
L 3506 4863 
L 4634 4863 
L 3688 0 
L 2559 0 
L 2663 506 
Q 2406 200 2125 54 
Q 1844 -91 1509 -91 
Q 919 -91 575 284 
Q 231 659 231 1306 
Q 231 1709 351 2090 
Q 472 2472 697 2784 
Q 981 3178 1339 3381 
Q 1697 3584 2106 3584 
Q 2466 3584 2717 3439 
Q 2969 3294 3144 2988 
z
" transform="scale(0.015625)"/>
      <path id="DejaVuSans-BoldOblique-65" d="M 4025 1619 
L 3988 1441 
L 1369 1441 
Q 1369 1422 1366 1386 
Q 1363 1350 1363 1331 
Q 1363 991 1567 822 
Q 1772 653 2181 653 
Q 2534 653 2926 759 
Q 3319 866 3750 1075 
L 3578 206 
Q 3169 56 2764 -17 
Q 2359 -91 1941 -91 
Q 1122 -91 676 287 
Q 231 666 231 1356 
Q 231 1756 373 2132 
Q 516 2509 788 2822 
Q 1109 3197 1557 3390 
Q 2006 3584 2553 3584 
Q 3263 3584 3680 3206 
Q 4097 2828 4097 2188 
Q 4097 2063 4080 1923 
Q 4063 1784 4025 1619 
z
M 2969 2131 
Q 2978 2172 2983 2214 
Q 2988 2256 2988 2297 
Q 2988 2547 2838 2694 
Q 2688 2841 2431 2841 
Q 2103 2841 1873 2661 
Q 1644 2481 1522 2131 
L 2969 2131 
z
" transform="scale(0.015625)"/>
      <path id="DejaVuSans-BoldOblique-20" transform="scale(0.015625)"/>
      <path id="DejaVuSans-BoldOblique-61" d="M 2106 1575 
Q 1688 1575 1473 1445 
Q 1259 1316 1259 1063 
Q 1259 872 1386 762 
Q 1513 653 1734 653 
Q 2078 653 2309 861 
Q 2541 1069 2619 1447 
L 2644 1575 
L 2106 1575 
z
M 3853 1997 
L 3463 0 
L 2344 0 
L 2438 519 
Q 2163 206 1856 57 
Q 1550 -91 1191 -91 
Q 694 -91 401 167 
Q 109 425 109 863 
Q 109 1531 626 1886 
Q 1144 2241 2119 2241 
L 2778 2241 
L 2791 2328 
Q 2800 2372 2801 2390 
Q 2803 2409 2803 2425 
Q 2803 2631 2608 2736 
Q 2413 2841 2028 2841 
Q 1681 2841 1356 2769 
Q 1031 2697 728 2553 
L 897 3406 
Q 1247 3494 1614 3539 
Q 1981 3584 2375 3584 
Q 3153 3584 3531 3317 
Q 3909 3050 3909 2503 
Q 3909 2397 3895 2270 
Q 3881 2144 3853 1997 
z
" transform="scale(0.015625)"/>
      <path id="DejaVuSans-BoldOblique-6e" d="M 4128 2131 
L 3713 0 
L 2591 0 
L 2944 1825 
Q 2981 2003 3001 2126 
Q 3022 2250 3022 2322 
Q 3022 2522 2911 2631 
Q 2800 2741 2597 2741 
Q 2250 2741 2001 2470 
Q 1753 2200 1656 1722 
L 1319 0 
L 197 0 
L 878 3500 
L 2003 3500 
L 1900 2988 
Q 2209 3291 2521 3437 
Q 2834 3584 3175 3584 
Q 3659 3584 3921 3331 
Q 4184 3078 4184 2619 
Q 4184 2519 4170 2397 
Q 4156 2275 4128 2131 
z
" transform="scale(0.015625)"/>
      <path id="DejaVuSans-BoldOblique-6d" d="M 4013 2919 
Q 4272 3241 4601 3412 
Q 4931 3584 5288 3584 
Q 5756 3584 6026 3326 
Q 6297 3069 6297 2619 
Q 6297 2525 6283 2404 
Q 6269 2284 6241 2131 
L 5825 0 
L 4697 0 
L 5050 1825 
L 5059 1872 
Q 5141 2259 5141 2369 
Q 5141 2541 5042 2641 
Q 4944 2741 4775 2741 
Q 4453 2741 4229 2477 
Q 4006 2213 3909 1722 
L 3572 0 
L 2444 0 
L 2803 1825 
Q 2850 2059 2869 2179 
Q 2888 2300 2888 2369 
Q 2888 2544 2791 2642 
Q 2694 2741 2522 2741 
Q 2213 2741 1980 2467 
Q 1747 2194 1656 1722 
L 1319 0 
L 197 0 
L 878 3500 
L 2003 3500 
L 1900 2988 
Q 2163 3284 2459 3434 
Q 2756 3584 3078 3584 
Q 3441 3584 3700 3398 
Q 3959 3213 4013 2919 
z
" transform="scale(0.015625)"/>
      <path id="DejaVuSans-BoldOblique-69" d="M 878 3500 
L 2003 3500 
L 1319 0 
L 197 0 
L 878 3500 
z
M 1141 4863 
L 2266 4863 
L 2088 3950 
L 959 3950 
L 1141 4863 
z
" transform="scale(0.015625)"/>
      <path id="DejaVuSans-BoldOblique-72" d="M 3291 2547 
Q 3175 2613 3034 2647 
Q 2894 2681 2731 2681 
Q 2303 2681 2020 2406 
Q 1738 2131 1638 1613 
L 1319 0 
L 197 0 
L 878 3500 
L 2003 3500 
L 1881 2900 
Q 2103 3231 2436 3407 
Q 2769 3584 3175 3584 
Q 3234 3584 3309 3578 
Q 3384 3572 3488 3559 
L 3291 2547 
z
" transform="scale(0.015625)"/>
      <path id="DejaVuSans-BoldOblique-70" d="M 1422 506 
L 1063 -1331 
L -63 -1331 
L 878 3500 
L 2003 3500 
L 1900 2988 
Q 2156 3294 2437 3439 
Q 2719 3584 3053 3584 
Q 3644 3584 3987 3209 
Q 4331 2834 4331 2188 
Q 4331 1784 4211 1403 
Q 4091 1022 3866 709 
Q 3581 316 3223 112 
Q 2866 -91 2456 -91 
Q 2097 -91 1845 54 
Q 1594 200 1422 506 
z
M 2597 2772 
Q 2166 2772 1892 2373 
Q 1619 1975 1619 1338 
Q 1619 1050 1773 886 
Q 1928 722 2203 722 
Q 2625 722 2900 1114 
Q 3175 1506 3175 2119 
Q 3175 2438 3026 2605 
Q 2878 2772 2597 2772 
z
" transform="scale(0.015625)"/>
      <path id="DejaVuSans-BoldOblique-73" d="M 3584 3391 
L 3419 2522 
Q 3091 2678 2766 2759 
Q 2441 2841 2150 2841 
Q 1819 2841 1639 2755 
Q 1459 2669 1459 2509 
Q 1459 2416 1559 2359 
Q 1659 2303 1953 2241 
L 2156 2203 
Q 2834 2059 3106 1832 
Q 3378 1606 3378 1203 
Q 3378 594 2900 251 
Q 2422 -91 1563 -91 
Q 1203 -91 828 -34 
Q 453 22 63 134 
L 231 1013 
Q 534 834 879 743 
Q 1225 653 1588 653 
Q 1941 653 2119 737 
Q 2297 822 2297 984 
Q 2297 1097 2197 1159 
Q 2097 1222 1784 1288 
L 1581 1325 
Q 981 1450 725 1694 
Q 469 1938 469 2369 
Q 469 2953 911 3268 
Q 1353 3584 2175 3584 
Q 2534 3584 2882 3536 
Q 3231 3488 3584 3391 
z
" transform="scale(0.015625)"/>
      <path id="DejaVuSans-BoldOblique-6c" d="M 1141 4863 
L 2266 4863 
L 1319 0 
L 197 0 
L 1141 4863 
z
" transform="scale(0.015625)"/>
      <path id="DejaVuSans-BoldOblique-76" d="M 403 3500 
L 1434 3500 
L 1888 1056 
L 3206 3500 
L 4341 3500 
L 2284 0 
L 1100 0 
L 403 3500 
z
" transform="scale(0.015625)"/>
      <path id="DejaVuSans-BoldOblique-67" d="M 2675 594 
Q 2406 288 2128 144 
Q 1850 0 1522 0 
Q 928 0 583 383 
Q 238 766 238 1428 
Q 238 1781 358 2136 
Q 478 2491 703 2803 
Q 978 3181 1334 3379 
Q 1691 3578 2100 3578 
Q 2469 3578 2720 3434 
Q 2972 3291 3144 2981 
L 3238 3500 
L 4366 3500 
L 3775 459 
Q 3594 -481 3000 -931 
Q 2406 -1381 1350 -1381 
Q 1025 -1381 723 -1331 
Q 422 -1281 128 -1178 
L 294 -306 
Q 559 -475 825 -558 
Q 1091 -641 1369 -641 
Q 1925 -641 2223 -403 
Q 2522 -166 2625 353 
L 2675 594 
z
M 2363 2772 
Q 1950 2772 1676 2400 
Q 1403 2028 1403 1466 
Q 1403 1147 1550 980 
Q 1697 813 1978 813 
Q 2388 813 2663 1183 
Q 2938 1553 2938 2106 
Q 2938 2431 2791 2601 
Q 2644 2772 2363 2772 
z
" transform="scale(0.015625)"/>
      <path id="DejaVuSans-BoldOblique-2014" d="M 313 2156 
L 6025 2156 
L 5866 1350 
L 153 1350 
L 313 2156 
z
" transform="scale(0.015625)"/>
      <path id="DejaVuSans-BoldOblique-4e" d="M 1044 4666 
L 2388 4666 
L 3456 1434 
L 4084 4666 
L 5222 4666 
L 4313 0 
L 2969 0 
L 1900 3231 
L 1275 0 
L 134 0 
L 1044 4666 
z
" transform="scale(0.015625)"/>
      <path id="DejaVuSans-BoldOblique-52" d="M 2350 2597 
Q 2759 2597 2970 2787 
Q 3181 2978 3181 3347 
Q 3181 3578 3036 3686 
Q 2891 3794 2578 3794 
L 2081 3794 
L 1844 2597 
L 2350 2597 
z
M 1684 1766 
L 1338 0 
L 134 0 
L 1044 4666 
L 2822 4666 
Q 3591 4666 3987 4378 
Q 4384 4091 4384 3531 
Q 4384 2966 4071 2600 
Q 3759 2234 3225 2181 
Q 3469 2131 3631 1932 
Q 3794 1734 3916 1325 
L 4313 0 
L 3116 0 
L 2766 1159 
Q 2659 1506 2507 1636 
Q 2356 1766 2069 1766 
L 1684 1766 
z
" transform="scale(0.015625)"/>
      <path id="DejaVuSans-BoldOblique-6b" d="M 1141 4863 
L 2266 4863 
L 1753 2228 
L 3263 3500 
L 4581 3500 
L 2547 1881 
L 4025 0 
L 2747 0 
L 1613 1509 
L 1319 0 
L 197 0 
L 1141 4863 
z
" transform="scale(0.015625)"/>
      <path id="DejaVuSans-BoldOblique-74" d="M 2303 4494 
L 2113 3500 
L 3256 3500 
L 3097 2700 
L 1953 2700 
L 1666 1219 
Q 1653 1169 1648 1134 
Q 1644 1100 1644 1069 
Q 1644 925 1739 862 
Q 1834 800 2059 800 
L 2638 800 
L 2478 0 
L 1538 0 
Q 1031 0 765 212 
Q 500 425 500 825 
Q 500 913 509 1013 
Q 519 1113 538 1216 
L 825 2700 
L 275 2700 
L 428 3500 
L 984 3500 
L 1178 4494 
L 2303 4494 
z
" transform="scale(0.015625)"/>
     </defs>
     <use xlink:href="#DejaVuSans-BoldOblique-22"/>
     <use xlink:href="#DejaVuSans-BoldOblique-43" transform="translate(52.099609 0)"/>
     <use xlink:href="#DejaVuSans-BoldOblique-6f" transform="translate(125.488281 0)"/>
     <use xlink:href="#DejaVuSans-BoldOblique-64" transform="translate(194.189453 0)"/>
     <use xlink:href="#DejaVuSans-BoldOblique-65" transform="translate(265.771484 0)"/>
     <use xlink:href="#DejaVuSans-BoldOblique-20" transform="translate(333.59375 0)"/>
     <use xlink:href="#DejaVuSans-BoldOblique-61" transform="translate(368.408203 0)"/>
     <use xlink:href="#DejaVuSans-BoldOblique-6e" transform="translate(435.888672 0)"/>
     <use xlink:href="#DejaVuSans-BoldOblique-64" transform="translate(507.080078 0)"/>
     <use xlink:href="#DejaVuSans-BoldOblique-20" transform="translate(578.662109 0)"/>
     <use xlink:href="#DejaVuSans-BoldOblique-6d" transform="translate(613.476562 0)"/>
     <use xlink:href="#DejaVuSans-BoldOblique-65" transform="translate(717.675781 0)"/>
     <use xlink:href="#DejaVuSans-BoldOblique-64" transform="translate(785.498047 0)"/>
     <use xlink:href="#DejaVuSans-BoldOblique-69" transform="translate(857.080078 0)"/>
     <use xlink:href="#DejaVuSans-BoldOblique-61" transform="translate(891.357422 0)"/>
     <use xlink:href="#DejaVuSans-BoldOblique-20" transform="translate(958.837891 0)"/>
     <use xlink:href="#DejaVuSans-BoldOblique-61" transform="translate(993.652344 0)"/>
     <use xlink:href="#DejaVuSans-BoldOblique-72" transform="translate(1061.132812 0)"/>
     <use xlink:href="#DejaVuSans-BoldOblique-65" transform="translate(1110.449219 0)"/>
     <use xlink:href="#DejaVuSans-BoldOblique-20" transform="translate(1178.271484 0)"/>
     <use xlink:href="#DejaVuSans-BoldOblique-70" transform="translate(1213.085938 0)"/>
     <use xlink:href="#DejaVuSans-BoldOblique-65" transform="translate(1284.667969 0)"/>
     <use xlink:href="#DejaVuSans-BoldOblique-72" transform="translate(1352.490234 0)"/>
     <use xlink:href="#DejaVuSans-BoldOblique-6d" transform="translate(1401.806641 0)"/>
     <use xlink:href="#DejaVuSans-BoldOblique-69" transform="translate(1506.005859 0)"/>
     <use xlink:href="#DejaVuSans-BoldOblique-73" transform="translate(1540.283203 0)"/>
     <use xlink:href="#DejaVuSans-BoldOblique-73" transform="translate(1599.804688 0)"/>
     <use xlink:href="#DejaVuSans-BoldOblique-69" transform="translate(1659.326172 0)"/>
     <use xlink:href="#DejaVuSans-BoldOblique-6f" transform="translate(1693.603516 0)"/>
     <use xlink:href="#DejaVuSans-BoldOblique-6e" transform="translate(1762.304688 0)"/>
     <use xlink:href="#DejaVuSans-BoldOblique-6c" transform="translate(1833.496094 0)"/>
     <use xlink:href="#DejaVuSans-BoldOblique-65" transform="translate(1867.773438 0)"/>
     <use xlink:href="#DejaVuSans-BoldOblique-73" transform="translate(1935.595703 0)"/>
     <use xlink:href="#DejaVuSans-BoldOblique-73" transform="translate(1995.117188 0)"/>
     <use xlink:href="#DejaVuSans-BoldOblique-20" transform="translate(2054.638672 0)"/>
     <use xlink:href="#DejaVuSans-BoldOblique-6c" transform="translate(2089.453125 0)"/>
     <use xlink:href="#DejaVuSans-BoldOblique-65" transform="translate(2123.730469 0)"/>
     <use xlink:href="#DejaVuSans-BoldOblique-76" transform="translate(2191.552734 0)"/>
     <use xlink:href="#DejaVuSans-BoldOblique-65" transform="translate(2256.738281 0)"/>
     <use xlink:href="#DejaVuSans-BoldOblique-72" transform="translate(2324.560547 0)"/>
     <use xlink:href="#DejaVuSans-BoldOblique-61" transform="translate(2373.876953 0)"/>
     <use xlink:href="#DejaVuSans-BoldOblique-67" transform="translate(2441.357422 0)"/>
     <use xlink:href="#DejaVuSans-BoldOblique-65" transform="translate(2512.939453 0)"/>
     <use xlink:href="#DejaVuSans-BoldOblique-22" transform="translate(2580.761719 0)"/>
     <use xlink:href="#DejaVuSans-BoldOblique-20" transform="translate(2632.861328 0)"/>
     <use xlink:href="#DejaVuSans-BoldOblique-20" transform="translate(2667.675781 0)"/>
     <use xlink:href="#DejaVuSans-BoldOblique-2014" transform="translate(2702.490234 0)"/>
     <use xlink:href="#DejaVuSans-BoldOblique-20" transform="translate(2802.490234 0)"/>
     <use xlink:href="#DejaVuSans-BoldOblique-4e" transform="translate(2837.304688 0)"/>
     <use xlink:href="#DejaVuSans-BoldOblique-61" transform="translate(2920.996094 0)"/>
     <use xlink:href="#DejaVuSans-BoldOblique-76" transform="translate(2988.476562 0)"/>
     <use xlink:href="#DejaVuSans-BoldOblique-61" transform="translate(3053.662109 0)"/>
     <use xlink:href="#DejaVuSans-BoldOblique-6c" transform="translate(3121.142578 0)"/>
     <use xlink:href="#DejaVuSans-BoldOblique-20" transform="translate(3155.419922 0)"/>
     <use xlink:href="#DejaVuSans-BoldOblique-52" transform="translate(3190.234375 0)"/>
     <use xlink:href="#DejaVuSans-BoldOblique-61" transform="translate(3267.236328 0)"/>
     <use xlink:href="#DejaVuSans-BoldOblique-76" transform="translate(3334.716797 0)"/>
     <use xlink:href="#DejaVuSans-BoldOblique-69" transform="translate(3399.902344 0)"/>
     <use xlink:href="#DejaVuSans-BoldOblique-6b" transform="translate(3434.179688 0)"/>
     <use xlink:href="#DejaVuSans-BoldOblique-61" transform="translate(3500.683594 0)"/>
     <use xlink:href="#DejaVuSans-BoldOblique-6e" transform="translate(3568.164062 0)"/>
     <use xlink:href="#DejaVuSans-BoldOblique-74" transform="translate(3639.355469 0)"/>
    </g>
   </g>
   <g id="text_15">
    <!-- Most people -->
    <g style="fill: #e63946" transform="translate(12.812773 407.901767) scale(0.085 -0.085)">
     <defs>
      <path id="DejaVuSans-Bold-74" d="M 1759 4494 
L 1759 3500 
L 2913 3500 
L 2913 2700 
L 1759 2700 
L 1759 1216 
Q 1759 972 1856 886 
Q 1953 800 2241 800 
L 2816 800 
L 2816 0 
L 1856 0 
Q 1194 0 917 276 
Q 641 553 641 1216 
L 641 2700 
L 84 2700 
L 84 3500 
L 641 3500 
L 641 4494 
L 1759 4494 
z
" transform="scale(0.015625)"/>
      <path id="DejaVuSans-Bold-70" d="M 1656 506 
L 1656 -1331 
L 538 -1331 
L 538 3500 
L 1656 3500 
L 1656 2988 
Q 1888 3294 2169 3439 
Q 2450 3584 2816 3584 
Q 3463 3584 3878 3070 
Q 4294 2556 4294 1747 
Q 4294 938 3878 423 
Q 3463 -91 2816 -91 
Q 2450 -91 2169 54 
Q 1888 200 1656 506 
z
M 2400 2772 
Q 2041 2772 1848 2508 
Q 1656 2244 1656 1747 
Q 1656 1250 1848 986 
Q 2041 722 2400 722 
Q 2759 722 2948 984 
Q 3138 1247 3138 1747 
Q 3138 2247 2948 2509 
Q 2759 2772 2400 2772 
z
" transform="scale(0.015625)"/>
     </defs>
     <use xlink:href="#DejaVuSans-Bold-4d"/>
     <use xlink:href="#DejaVuSans-Bold-6f" transform="translate(99.511719 0)"/>
     <use xlink:href="#DejaVuSans-Bold-73" transform="translate(168.212891 0)"/>
     <use xlink:href="#DejaVuSans-Bold-74" transform="translate(227.734375 0)"/>
     <use xlink:href="#DejaVuSans-Bold-20" transform="translate(275.537109 0)"/>
     <use xlink:href="#DejaVuSans-Bold-70" transform="translate(310.351562 0)"/>
     <use xlink:href="#DejaVuSans-Bold-65" transform="translate(381.933594 0)"/>
     <use xlink:href="#DejaVuSans-Bold-6f" transform="translate(449.755859 0)"/>
     <use xlink:href="#DejaVuSans-Bold-70" transform="translate(518.457031 0)"/>
     <use xlink:href="#DejaVuSans-Bold-6c" transform="translate(590.039062 0)"/>
     <use xlink:href="#DejaVuSans-Bold-65" transform="translate(624.316406 0)"/>
    </g>
    <!-- stay here -->
    <g style="fill: #e63946" transform="translate(19.796055 417.419907) scale(0.085 -0.085)">
     <defs>
      <path id="DejaVuSans-Bold-68" d="M 4056 2131 
L 4056 0 
L 2931 0 
L 2931 347 
L 2931 1625 
Q 2931 2084 2911 2256 
Q 2891 2428 2841 2509 
Q 2775 2619 2662 2680 
Q 2550 2741 2406 2741 
Q 2056 2741 1856 2470 
Q 1656 2200 1656 1722 
L 1656 0 
L 538 0 
L 538 4863 
L 1656 4863 
L 1656 2988 
Q 1909 3294 2193 3439 
Q 2478 3584 2822 3584 
Q 3428 3584 3742 3212 
Q 4056 2841 4056 2131 
z
" transform="scale(0.015625)"/>
     </defs>
     <use xlink:href="#DejaVuSans-Bold-73"/>
     <use xlink:href="#DejaVuSans-Bold-74" transform="translate(59.521484 0)"/>
     <use xlink:href="#DejaVuSans-Bold-61" transform="translate(107.324219 0)"/>
     <use xlink:href="#DejaVuSans-Bold-79" transform="translate(171.679688 0)"/>
     <use xlink:href="#DejaVuSans-Bold-20" transform="translate(236.865234 0)"/>
     <use xlink:href="#DejaVuSans-Bold-68" transform="translate(271.679688 0)"/>
     <use xlink:href="#DejaVuSans-Bold-65" transform="translate(342.871094 0)"/>
     <use xlink:href="#DejaVuSans-Bold-72" transform="translate(410.693359 0)"/>
     <use xlink:href="#DejaVuSans-Bold-65" transform="translate(460.009766 0)"/>
    </g>
   </g>
   <g id="text_16">
    <!-- Requires -->
    <g style="fill: #ff9f1c" transform="translate(21.041172 304.530338) scale(0.085 -0.085)">
     <defs>
      <path id="DejaVuSans-Bold-71" d="M 2181 2772 
Q 1825 2772 1636 2509 
Q 1447 2247 1447 1747 
Q 1447 1247 1636 984 
Q 1825 722 2181 722 
Q 2541 722 2730 984 
Q 2919 1247 2919 1747 
Q 2919 2247 2730 2509 
Q 2541 2772 2181 2772 
z
M 2919 506 
Q 2688 197 2409 53 
Q 2131 -91 1766 -91 
Q 1119 -91 703 423 
Q 288 938 288 1747 
Q 288 2556 703 3067 
Q 1119 3578 1766 3578 
Q 2131 3578 2409 3434 
Q 2688 3291 2919 2981 
L 2919 3500 
L 4044 3500 
L 4044 -1331 
L 2919 -1331 
L 2919 506 
z
" transform="scale(0.015625)"/>
      <path id="DejaVuSans-Bold-75" d="M 500 1363 
L 500 3500 
L 1625 3500 
L 1625 3150 
Q 1625 2866 1622 2436 
Q 1619 2006 1619 1863 
Q 1619 1441 1641 1255 
Q 1663 1069 1716 984 
Q 1784 875 1895 815 
Q 2006 756 2150 756 
Q 2500 756 2700 1025 
Q 2900 1294 2900 1772 
L 2900 3500 
L 4019 3500 
L 4019 0 
L 2900 0 
L 2900 506 
Q 2647 200 2364 54 
Q 2081 -91 1741 -91 
Q 1134 -91 817 281 
Q 500 653 500 1363 
z
" transform="scale(0.015625)"/>
     </defs>
     <use xlink:href="#DejaVuSans-Bold-52"/>
     <use xlink:href="#DejaVuSans-Bold-65" transform="translate(77.001953 0)"/>
     <use xlink:href="#DejaVuSans-Bold-71" transform="translate(144.824219 0)"/>
     <use xlink:href="#DejaVuSans-Bold-75" transform="translate(216.40625 0)"/>
     <use xlink:href="#DejaVuSans-Bold-69" transform="translate(287.597656 0)"/>
     <use xlink:href="#DejaVuSans-Bold-72" transform="translate(321.875 0)"/>
     <use xlink:href="#DejaVuSans-Bold-65" transform="translate(371.191406 0)"/>
     <use xlink:href="#DejaVuSans-Bold-73" transform="translate(439.013672 0)"/>
    </g>
    <!-- savings first -->
    <g style="fill: #ff9f1c" transform="translate(12.565078 314.048479) scale(0.085 -0.085)">
     <defs>
      <path id="DejaVuSans-Bold-6e" d="M 4056 2131 
L 4056 0 
L 2931 0 
L 2931 347 
L 2931 1631 
Q 2931 2084 2911 2256 
Q 2891 2428 2841 2509 
Q 2775 2619 2662 2680 
Q 2550 2741 2406 2741 
Q 2056 2741 1856 2470 
Q 1656 2200 1656 1722 
L 1656 0 
L 538 0 
L 538 3500 
L 1656 3500 
L 1656 2988 
Q 1909 3294 2193 3439 
Q 2478 3584 2822 3584 
Q 3428 3584 3742 3212 
Q 4056 2841 4056 2131 
z
" transform="scale(0.015625)"/>
     </defs>
     <use xlink:href="#DejaVuSans-Bold-73"/>
     <use xlink:href="#DejaVuSans-Bold-61" transform="translate(59.521484 0)"/>
     <use xlink:href="#DejaVuSans-Bold-76" transform="translate(127.001953 0)"/>
     <use xlink:href="#DejaVuSans-Bold-69" transform="translate(192.1875 0)"/>
     <use xlink:href="#DejaVuSans-Bold-6e" transform="translate(226.464844 0)"/>
     <use xlink:href="#DejaVuSans-Bold-67" transform="translate(297.65625 0)"/>
     <use xlink:href="#DejaVuSans-Bold-73" transform="translate(369.238281 0)"/>
     <use xlink:href="#DejaVuSans-Bold-20" transform="translate(428.759766 0)"/>
     <use xlink:href="#DejaVuSans-Bold-66" transform="translate(463.574219 0)"/>
     <use xlink:href="#DejaVuSans-Bold-69" transform="translate(507.080078 0)"/>
     <use xlink:href="#DejaVuSans-Bold-72" transform="translate(541.357422 0)"/>
     <use xlink:href="#DejaVuSans-Bold-73" transform="translate(590.673828 0)"/>
     <use xlink:href="#DejaVuSans-Bold-74" transform="translate(650.195312 0)"/>
    </g>
   </g>
   <g id="text_17">
    <!-- Engineers -->
    <g style="fill: #4361ee" transform="translate(18.384922 201.15891) scale(0.085 -0.085)">
     <use xlink:href="#DejaVuSans-Bold-45"/>
     <use xlink:href="#DejaVuSans-Bold-6e" transform="translate(68.310547 0)"/>
     <use xlink:href="#DejaVuSans-Bold-67" transform="translate(139.501953 0)"/>
     <use xlink:href="#DejaVuSans-Bold-69" transform="translate(211.083984 0)"/>
     <use xlink:href="#DejaVuSans-Bold-6e" transform="translate(245.361328 0)"/>
     <use xlink:href="#DejaVuSans-Bold-65" transform="translate(316.552734 0)"/>
     <use xlink:href="#DejaVuSans-Bold-65" transform="translate(384.375 0)"/>
     <use xlink:href="#DejaVuSans-Bold-72" transform="translate(452.197266 0)"/>
     <use xlink:href="#DejaVuSans-Bold-73" transform="translate(501.513672 0)"/>
    </g>
    <!-- start here -->
    <g style="fill: #4361ee" transform="translate(18.306563 210.743456) scale(0.085 -0.085)">
     <use xlink:href="#DejaVuSans-Bold-73"/>
     <use xlink:href="#DejaVuSans-Bold-74" transform="translate(59.521484 0)"/>
     <use xlink:href="#DejaVuSans-Bold-61" transform="translate(107.324219 0)"/>
     <use xlink:href="#DejaVuSans-Bold-72" transform="translate(174.804688 0)"/>
     <use xlink:href="#DejaVuSans-Bold-74" transform="translate(224.121094 0)"/>
     <use xlink:href="#DejaVuSans-Bold-20" transform="translate(271.923828 0)"/>
     <use xlink:href="#DejaVuSans-Bold-68" transform="translate(306.738281 0)"/>
     <use xlink:href="#DejaVuSans-Bold-65" transform="translate(377.929688 0)"/>
     <use xlink:href="#DejaVuSans-Bold-72" transform="translate(445.751953 0)"/>
     <use xlink:href="#DejaVuSans-Bold-65" transform="translate(495.068359 0)"/>
    </g>
   </g>
  </g>
 </g>
 <defs>
  <clipPath id="p15da6f5ce7">
   <rect x="7.2" y="7.2" width="840.69" height="482.4"/>
  </clipPath>
 </defs>
</svg>
